#N canvas 377 409 1526 1031 12;
#X obj 47 305 *~ 1;
#X text 329 55 in order to create synth string we want to have \; lots
of complex and subtle modulations going on. \; This creates lushness.
;
#X obj 47 162 poly 16 1, f 10;
#X obj 47 186 -1;
#X obj 47 210 pack 0 0 0;
#X text 172 92 100velo \, 500ms;
#X text 131 163 don't quite understand how this works \; I should read
the documentation sometime;
#X obj 47 115 pack 0 0;
#X obj 47 271 clone string-synth.cl 20;
#X obj 47 88 makenote 100 500;
#X msg 105 62 100;
#X msg 156 63 500;
#X obj 105 32 loadbang;
#N canvas 356 113 507 177 explanation 0;
#X text 39 29 In previous videos we have sent notes to clone \, but
each sound ends by itself. So all we need to do is find a free voice
\, then trigger it. The important difference in this video is that
the sound will continue indefinitely until we explicitly tell it to
stop. That raises the issue of how we know which voice to send the
stop (note off) message to. The poly object takes care of that - making
sure the correct voice gets the corresponding "off" message.;
#X restore 205 196 pd explanation;
#X obj 47 46 inlet;
#X text 44 22 notes;
#X obj 47 329 outlet~;
#X connect 0 0 16 0;
#X connect 2 0 3 0;
#X connect 2 1 4 1;
#X connect 2 2 4 2;
#X connect 3 0 4 0;
#X connect 4 0 8 0;
#X connect 7 0 2 0;
#X connect 8 0 0 0;
#X connect 9 0 7 0;
#X connect 9 1 7 1;
#X connect 10 0 9 1;
#X connect 11 0 9 2;
#X connect 12 0 10 0;
#X connect 12 0 11 0;
#X connect 14 0 9 0;
