#N canvas 268 136 1115 754 12;
#X declare -lib cyclone;
#X declare -lib zexy;
#X obj 35 30 vradio 15 1 0 9 empty empty octave 0 -8 0 10 -262144 -1
-1 5;
#X msg 292 51 B;
#X msg 66 50 C;
#X msg 103 50 D;
#X msg 141 50 E;
#X msg 178 50 F;
#X msg 216 50 G;
#X obj 931 31 declare -lib cyclone;
#X msg 255 50 A;
#X text 24 149 0;
#X text 24 135 1;
#X text 24 120 2;
#X text 24 104 3;
#X text 24 89 4;
#X text 24 74 5;
#X text 24 59 6;
#X text 24 45 7;
#X text 24 30 8;
#X msg 291 113 b;
#X msg 298 88 #;
#X msg 276 137 N;
#X obj 648 94 vradio 15 1 0 4 empty empty empty 0 -8 0 10 -262144 -1
-1 2;
#X text 616 137 root;
#X text 623 121 1st;
#X text 623 106 2nd;
#X text 623 92 3rd;
#X obj 34 445 osc~;
#X obj 72 445 osc~;
#X obj 114 445 osc~;
#X obj 157 445 osc~;
#X obj 33 493 +~;
#X obj 34 575 master-ctrl;
#X obj 111 544 hsl 128 15 0 127 0 0 empty empty empty -2 -8 0 10 -262144
-1 -1 2700 1;
#X obj 33 517 *~ 0.25;
#N canvas 65 125 1119 825 harmonize 1;
#X obj 27 26 inlet;
#X text 71 27 octave;
#X obj 192 28 inlet;
#X text 238 28 root;
#X obj 554 33 inlet;
#X text 603 33 accidental;
#X obj 192 52 prepend symbol;
#X msg 192 110 0;
#X obj 554 57 prepend symbol;
#X obj 554 81 sel b # N, f 20;
#X msg 554 112 -1;
#X msg 599 113 1;
#X msg 645 113 0;
#X obj 192 162 pak f f;
#X obj 192 186 unpack;
#X obj 192 212 +;
#X msg 231 110 2;
#X msg 311 112 5;
#X msg 350 112 7;
#X obj 192 79 sel C D E F G A B, f 40;
#X msg 271 112 4;
#X msg 390 112 9;
#X msg 469 112 12;
#X msg 429 112 11;
#X obj 27 82 * 12;
#X obj 27 58 expr 9 - $f1;
#X obj 29 298 pak f f;
#X obj 29 322 unpack;
#X obj 29 346 +;
#X obj 693 267 inlet;
#X text 739 267 chord;
#X obj 831 217 inlet;
#X text 876 218 inversion;
#N canvas 9 283 1071 702 give-chord 1;
#X obj 182 197 unpack f f f f, f 18;
#X obj 182 345 +;
#X obj 221 345 +;
#X obj 263 345 +;
#X obj 305 345 +;
#X obj 53 197 inlet;
#X text 105 197 root;
#X obj 182 48 inlet;
#X text 232 52 chord;
#X obj 458 241 inlet;
#X text 503 241 inversion;
#X obj 178 618 outlet;
#X obj 248 618 outlet;
#X obj 313 618 outlet;
#X obj 376 619 outlet;
#X obj 182 77 prepend symbol;
#X obj 53 221 t b f;
#X msg 182 135 0 4 7 0;
#X msg 246 135 0 3 7 0;
#X msg 311 135 0 3 6 0;
#X msg 376 135 0 4 8 0;
#X obj 182 106 sel M m d a M6 m6 M7 m7 7 mM7 d7 a7 7sus4, f 121;
#X msg 441 135 0 4 7 9;
#X msg 506 135 0 3 7 9;
#X msg 571 135 0 4 7 11;
#X msg 636 135 0 3 7 10;
#X msg 701 135 0 4 7 11;
#X msg 766 135 0 3 7 11;
#X msg 831 135 0 3 6 9;
#X msg 896 135 0 4 8 10;
#X msg 961 135 0 5 7 10;
#X obj 178 552 mtof;
#X obj 248 553 mtof;
#X obj 313 553 mtof;
#X obj 376 554 mtof;
#X obj 404 328 > 0;
#X obj 481 344 > 1;
#X obj 563 364 > 2;
#X obj 404 352 * 12;
#X obj 193 457 +;
#X obj 481 368 * 12;
#X obj 563 388 * 12;
#X obj 232 478 +;
#X obj 275 510 +;
#X obj 458 265 expr 3 - $f1;
#X obj 563 412 t b f;
#X obj 481 392 t b f;
#X obj 404 376 t b f;
#X connect 0 0 1 0;
#X connect 0 1 2 0;
#X connect 0 2 3 0;
#X connect 0 3 4 0;
#X connect 1 0 39 0;
#X connect 2 0 42 0;
#X connect 3 0 43 0;
#X connect 4 0 34 0;
#X connect 5 0 16 0;
#X connect 7 0 15 0;
#X connect 9 0 44 0;
#X connect 15 0 21 0;
#X connect 16 0 1 0;
#X connect 16 0 2 0;
#X connect 16 0 3 0;
#X connect 16 0 4 0;
#X connect 16 1 1 1;
#X connect 16 1 2 1;
#X connect 16 1 3 1;
#X connect 16 1 4 1;
#X connect 17 0 0 0;
#X connect 18 0 0 0;
#X connect 19 0 0 0;
#X connect 20 0 0 0;
#X connect 21 0 17 0;
#X connect 21 1 18 0;
#X connect 21 2 19 0;
#X connect 21 3 20 0;
#X connect 21 4 22 0;
#X connect 21 5 23 0;
#X connect 21 6 24 0;
#X connect 21 7 25 0;
#X connect 21 8 26 0;
#X connect 21 9 27 0;
#X connect 21 10 28 0;
#X connect 21 11 29 0;
#X connect 21 12 30 0;
#X connect 22 0 0 0;
#X connect 23 0 0 0;
#X connect 24 0 0 0;
#X connect 25 0 0 0;
#X connect 26 0 0 0;
#X connect 27 0 0 0;
#X connect 28 0 0 0;
#X connect 29 0 0 0;
#X connect 30 0 0 0;
#X connect 31 0 11 0;
#X connect 32 0 12 0;
#X connect 33 0 13 0;
#X connect 34 0 14 0;
#X connect 35 0 38 0;
#X connect 36 0 40 0;
#X connect 37 0 41 0;
#X connect 38 0 47 0;
#X connect 39 0 31 0;
#X connect 40 0 46 0;
#X connect 41 0 45 0;
#X connect 42 0 32 0;
#X connect 43 0 33 0;
#X connect 44 0 35 0;
#X connect 44 0 36 0;
#X connect 44 0 37 0;
#X connect 45 0 43 0;
#X connect 45 1 43 1;
#X connect 46 0 42 0;
#X connect 46 1 42 1;
#X connect 47 0 39 0;
#X connect 47 1 39 1;
#X restore 330 475 pd give-chord;
#X obj 316 551 outlet;
#X obj 374 552 outlet;
#X obj 434 555 outlet;
#X obj 492 556 outlet;
#X obj 831 242 sel 0 1 2 3;
#X obj 103 529 print;
#X msg 144 474 \$1\$2\$3 \$4;
#X msg 505 169 b;
#X msg 545 171 #;
#X obj 144 449 pak s s s s;
#X msg 831 278 root_position;
#X msg 849 308 1st_inversion;
#X msg 868 342 2nd_inversion;
#X msg 886 375 3rd_inversion;
#X connect 0 0 25 0;
#X connect 2 0 6 0;
#X connect 4 0 8 0;
#X connect 6 0 19 0;
#X connect 6 0 43 0;
#X connect 7 0 13 0;
#X connect 8 0 9 0;
#X connect 9 0 10 0;
#X connect 9 0 41 0;
#X connect 9 1 11 0;
#X connect 9 1 42 0;
#X connect 9 2 12 0;
#X connect 10 0 13 1;
#X connect 11 0 13 1;
#X connect 12 0 13 1;
#X connect 13 0 14 0;
#X connect 14 0 15 0;
#X connect 14 1 15 1;
#X connect 15 0 26 1;
#X connect 16 0 13 0;
#X connect 17 0 13 0;
#X connect 18 0 13 0;
#X connect 19 0 7 0;
#X connect 19 1 16 0;
#X connect 19 2 20 0;
#X connect 19 3 17 0;
#X connect 19 4 18 0;
#X connect 19 5 21 0;
#X connect 19 6 23 0;
#X connect 19 7 22 0;
#X connect 20 0 13 0;
#X connect 21 0 13 0;
#X connect 22 0 13 0;
#X connect 23 0 13 0;
#X connect 24 0 26 0;
#X connect 25 0 24 0;
#X connect 26 0 27 0;
#X connect 27 0 28 0;
#X connect 27 1 28 1;
#X connect 28 0 33 0;
#X connect 29 0 33 1;
#X connect 29 0 43 2;
#X connect 31 0 33 2;
#X connect 31 0 38 0;
#X connect 33 0 34 0;
#X connect 33 1 35 0;
#X connect 33 2 36 0;
#X connect 33 3 37 0;
#X connect 38 0 44 0;
#X connect 38 1 45 0;
#X connect 38 2 46 0;
#X connect 38 3 47 0;
#X connect 40 0 39 0;
#X connect 41 0 43 1;
#X connect 42 0 43 1;
#X connect 43 0 40 0;
#X connect 44 0 43 3;
#X connect 45 0 43 3;
#X connect 46 0 43 3;
#X connect 47 0 43 3;
#X restore 35 171 pd harmonize;
#X f 88;
#X msg 461 136 M;
#X msg 424 136 m;
#X msg 497 136 d;
#X msg 535 136 a;
#X msg 425 106 M6;
#X msg 460 108 m6;
#X msg 536 106 m7;
#X msg 424 73 7;
#X msg 463 74 mM7;
#X msg 538 72 a7;
#X msg 502 73 d7;
#X msg 424 35 7sus4;
#X obj 931 60 declare -lib zexy;
#X msg 499 106 M7;
#X connect 0 0 34 0;
#X connect 1 0 34 1;
#X connect 2 0 34 1;
#X connect 3 0 34 1;
#X connect 4 0 34 1;
#X connect 5 0 34 1;
#X connect 6 0 34 1;
#X connect 8 0 34 1;
#X connect 18 0 34 2;
#X connect 19 0 34 2;
#X connect 20 0 34 2;
#X connect 21 0 34 4;
#X connect 26 0 30 0;
#X connect 27 0 30 0;
#X connect 28 0 30 0;
#X connect 29 0 30 0;
#X connect 30 0 33 0;
#X connect 32 0 31 2;
#X connect 33 0 31 0;
#X connect 33 0 31 1;
#X connect 34 0 26 0;
#X connect 34 1 27 0;
#X connect 34 2 28 0;
#X connect 34 3 29 0;
#X connect 35 0 34 3;
#X connect 36 0 34 3;
#X connect 37 0 34 3;
#X connect 38 0 34 3;
#X connect 39 0 34 3;
#X connect 40 0 34 3;
#X connect 41 0 34 3;
#X connect 42 0 34 3;
#X connect 43 0 34 3;
#X connect 44 0 34 3;
#X connect 45 0 34 3;
#X connect 46 0 34 3;
#X connect 48 0 34 3;
