#N canvas 507 43 974 920 12;
#X obj 650 27 osc-rcv;
#X obj 62 35 r Arduino;
#X obj 62 69 route A0;
#X obj 62 117 line;
#X obj 223 312 metro;
#X obj 63 151 / 2;
#X obj 28 495 osc~ 440;
#X obj 312 849 master-ctrl;
#X obj 204 300 tgl 15 0 empty empty empty 17 7 0 10 -262144 -1 -1 1
1;
#X obj 245 414 vline~;
#X msg 62 93 \$1 500;
#X text 615 87 whats the difference \; between line~ and vline~?;
#X obj 25 356 *~ 20;
#X obj 25 332 osc~ 0.5;
#X obj 492 774 hsl 50 15 0 127 0 0 empty empty empty -2 -8 0 10 -262144
-1 -1 1600 1;
#X obj 40 550 *~;
#X obj 38 636 +~;
#X floatatom 451 423 5 0 0 0 - - -;
#X obj 352 383 osc~ 0.3;
#X obj 352 407 *~ 20;
#X obj 352 462 +~;
#X obj 386 199 *~ 0.001;
#X obj 310 552 *~ 1;
#X obj 234 707 *~ 0.5;
#X obj 458 527 delread4~ delr;
#X obj 310 523 delread4~ dell;
#X obj 38 705 delwrite~ dell 500;
#X obj 482 660 delwrite~ delr 500;
#X obj 371 673 *~ 0.5;
#X obj 546 394 osc~;
#X obj 520 310 *~ 0.4;
#X obj 546 418 *~ 30;
#X obj 546 442 +~;
#X floatatom 616 421 5 0 0 0 - - -;
#N canvas 924 251 454 463 stereo-flipper 0;
#X obj 29 177 inlet~;
#X obj 95 178 inlet~;
#X obj 28 346 outlet~;
#X obj 94 346 outlet~;
#X obj 28 317 *~;
#X obj 94 317 *~;
#X obj 46 246 *~;
#X obj 115 246 *~;
#X floatatom 217 187 5 0 0 0 - - -;
#X obj 217 164 expr 1 - $f1;
#X obj 180 54 inlet;
#X obj 219 86 min 1;
#X obj 219 110 max 0;
#X text 106 75 input between 0-1;
#X obj 251 59 hsl 128 15 0 1 0 0 empty empty empty -2 -8 0 10 -262144
-1 -1 4900 1;
#X obj 325 251 expr~ 1 - \$1;
#X obj 325 207 osc~ 0.01;
#X connect 0 0 4 0;
#X connect 0 0 6 0;
#X connect 1 0 5 0;
#X connect 1 0 7 0;
#X connect 4 0 2 0;
#X connect 5 0 3 0;
#X connect 6 0 3 0;
#X connect 7 0 2 0;
#X connect 8 0 5 1;
#X connect 8 0 4 1;
#X connect 9 0 8 0;
#X connect 10 0 11 0;
#X connect 11 0 12 0;
#X connect 12 0 9 0;
#X connect 12 0 7 1;
#X connect 12 0 6 1;
#X connect 14 0 11 0;
#X connect 15 0 4 1;
#X connect 16 0 15 0;
#X connect 16 0 5 1;
#X restore 256 780 pd stereo-flipper;
#X obj 29 407 +~;
#X obj 29 431 +~ 440;
#X obj 97 331 osc~ 220;
#X obj 97 355 *~ 100;
#X obj 97 403 *~;
#X obj 379 141 expr 1 - $f1;
#X obj 64 202 expr 400 - $f1;
#X obj 492 591 *~ 0.8;
#X obj 68 588 *~ 0.8;
#X msg 246 358 1 2 \, 0 35 2;
#X obj 145 404 vline~;
#X msg 145 381 1 5 \, 0 100 5;
#X obj 99 473 vline~;
#X obj 29 471 +~;
#X msg 100 449 200 1 \, 0 5 1;
#X connect 1 0 2 0;
#X connect 2 0 10 0;
#X connect 3 0 5 0;
#X connect 3 0 40 0;
#X connect 4 0 44 0;
#X connect 4 0 46 0;
#X connect 4 0 49 0;
#X connect 5 0 41 0;
#X connect 6 0 15 0;
#X connect 8 0 4 0;
#X connect 9 0 15 1;
#X connect 10 0 3 0;
#X connect 12 0 35 0;
#X connect 13 0 12 0;
#X connect 14 0 7 2;
#X connect 15 0 16 0;
#X connect 15 0 27 0;
#X connect 16 0 26 0;
#X connect 17 0 20 1;
#X connect 18 0 19 0;
#X connect 19 0 20 0;
#X connect 20 0 25 0;
#X connect 21 0 18 0;
#X connect 21 0 30 0;
#X connect 22 0 43 0;
#X connect 23 0 34 0;
#X connect 24 0 28 0;
#X connect 24 0 42 0;
#X connect 25 0 22 0;
#X connect 28 0 34 1;
#X connect 29 0 31 0;
#X connect 30 0 29 0;
#X connect 31 0 32 0;
#X connect 32 0 24 0;
#X connect 33 0 32 1;
#X connect 34 0 7 0;
#X connect 34 1 7 1;
#X connect 35 0 36 0;
#X connect 36 0 48 0;
#X connect 37 0 38 0;
#X connect 38 0 39 0;
#X connect 39 0 35 1;
#X connect 40 0 21 0;
#X connect 41 0 4 1;
#X connect 42 0 27 0;
#X connect 43 0 16 1;
#X connect 43 0 23 0;
#X connect 44 0 9 0;
#X connect 45 0 39 1;
#X connect 46 0 45 0;
#X connect 47 0 48 1;
#X connect 48 0 6 0;
#X connect 49 0 47 0;
