#N canvas 681 261 561 507 12;
#X obj 122 435 outlet~;
#X obj 123 33 inlet;
#X obj 123 88 mtof;
#N canvas 235 366 501 452 string-voice 0;
#X obj 64 306 phasor~;
#X obj 191 283 *~ 0.4;
#X obj 191 307 +~ 0.5;
#X obj 64 334 expr~ $v1 > $v2;
#X text 244 287 slowly modulate the pulsewidth \; between 0.5 - 0.9%
;
#X text 83 358 if sig is greater than ... \; -this gives us a square
wave;
#X floatatom 32 175 5 0 0 0 - - -;
#X obj 32 198 sig~;
#X obj 64 232 +~;
#X obj 83 200 *~ 6;
#X obj 83 176 osc~ 3.54;
#X text 122 203 modulate the freq (vibrato);
#X obj 32 147 inlet;
#X obj 64 398 outlet~;
#X obj 191 259 osc~ 0.7;
#X obj 83 26 loadbang;
#X obj 83 50 random 1000;
#X obj 83 98 + 1;
#X obj 83 74 * 0.003;
#X obj 191 57 loadbang;
#X obj 191 81 random 1000;
#X obj 191 129 + 1;
#X obj 191 105 * 0.003;
#X text 183 27 slight randomization;
#X connect 0 0 3 0;
#X connect 1 0 2 0;
#X connect 2 0 3 1;
#X connect 3 0 13 0;
#X connect 6 0 7 0;
#X connect 7 0 8 0;
#X connect 8 0 0 0;
#X connect 9 0 8 1;
#X connect 10 0 9 0;
#X connect 12 0 6 0;
#X connect 14 0 1 0;
#X connect 15 0 16 0;
#X connect 16 0 18 0;
#X connect 17 0 10 0;
#X connect 18 0 17 0;
#X connect 19 0 20 0;
#X connect 20 0 22 0;
#X connect 21 0 14 0;
#X connect 22 0 21 0;
#X restore 123 165 pd string-voice;
#X obj 123 57 unpack f f;
#X obj 122 375 *~;
#N canvas 1019 210 375 435 envelope 0;
#X obj 94 63 sel 0;
#X text 144 62 note on or off?;
#X floatatom 195 134 5 0 0 0 - - -;
#X obj 128 134 / 127;
#X obj 94 293 pack 0 400;
#X text 239 134 attack time;
#X floatatom 161 265 5 0 0 0 - - -;
#X text 201 266 release time;
#X obj 195 86 loadbang;
#X obj 161 217 loadbang;
#X obj 128 163 pack 0 100;
#X obj 45 363 *~;
#X obj 94 30 inlet;
#X obj 45 397 outlet~;
#X msg 195 109 200;
#X msg 161 240 2000;
#X obj 45 338 line~;
#X connect 0 0 4 0;
#X connect 0 1 3 0;
#X connect 2 0 10 1;
#X connect 3 0 10 0;
#X connect 4 0 16 0;
#X connect 6 0 4 1;
#X connect 8 0 14 0;
#X connect 9 0 15 0;
#X connect 10 0 16 0;
#X connect 11 0 13 0;
#X connect 12 0 0 0;
#X connect 14 0 2 0;
#X connect 15 0 6 0;
#X connect 16 0 11 0;
#X connect 16 0 11 1;
#X restore 451 168 pd envelope;
#N canvas 195 201 554 545 string-voice 0;
#X obj 65 282 phasor~;
#X obj 192 259 *~ 0.4;
#X obj 192 283 +~ 0.5;
#X obj 65 310 expr~ $v1 > $v2;
#X text 245 263 slowly modulate the pulsewidth \; between 0.5 - 0.9%
;
#X text 84 334 if sig is greater than ... \; -this gives us a square
wave;
#X floatatom 33 151 5 0 0 0 - - -;
#X obj 33 174 sig~;
#X obj 65 208 +~;
#X obj 84 176 *~ 6;
#X obj 84 152 osc~ 3.54;
#X text 123 179 modulate the freq (vibrato);
#X obj 33 123 inlet;
#X obj 65 374 outlet~;
#X obj 192 235 osc~ 0.7;
#X obj 84 43 loadbang;
#X obj 84 67 random 1000;
#X obj 84 115 + 1;
#X obj 84 91 * 0.003;
#X obj 192 74 loadbang;
#X obj 192 98 random 1000;
#X obj 192 146 + 1;
#X obj 192 122 * 0.003;
#X text 184 44 slight randomization;
#X connect 0 0 3 0;
#X connect 1 0 2 0;
#X connect 2 0 3 1;
#X connect 3 0 13 0;
#X connect 6 0 7 0;
#X connect 7 0 8 0;
#X connect 8 0 0 0;
#X connect 9 0 8 1;
#X connect 10 0 9 0;
#X connect 12 0 6 0;
#X connect 14 0 1 0;
#X connect 15 0 16 0;
#X connect 16 0 18 0;
#X connect 17 0 10 0;
#X connect 18 0 17 0;
#X connect 19 0 20 0;
#X connect 20 0 22 0;
#X connect 21 0 14 0;
#X connect 22 0 21 0;
#X restore 239 165 pd string-voice;
#X text 239 200 2nd voice with \; slight detune;
#X obj 56 237 * 10;
#X obj 122 406 lop~ 5000;
#X text 14 288 LP filter \; cutoff is \; relative to \; note freq;
#X obj 240 135 * 1.014;
#X connect 1 0 4 0;
#X connect 2 0 3 0;
#X connect 2 0 9 0;
#X connect 2 0 12 0;
#X connect 3 0 5 0;
#X connect 4 0 2 0;
#X connect 4 1 6 0;
#X connect 5 0 10 0;
#X connect 6 0 5 1;
#X connect 7 0 5 0;
#X connect 9 0 10 1;
#X connect 10 0 0 0;
#X connect 12 0 7 0;
