#N canvas 928 366 529 366 12;
#X obj 67 47 r tuneOsc;
#X obj 67 71 t f b;
#X obj 70 167 +;
#X obj 71 210 osc~;
#X obj 71 246 outlet~;
#X obj 159 81 loadbang;
#X obj 161 119 random 1000;
#X obj 255 50 r resetOsc;
#X obj 255 85 bng 15 250 50 0 empty empty empty 17 7 0 10 -262144 -1
-1;
#X connect 0 0 1 0;
#X connect 1 0 2 0;
#X connect 2 0 3 0;
#X connect 3 0 4 0;
#X connect 5 0 6 0;
#X connect 6 0 2 1;
#X connect 7 0 8 0;
#X connect 8 0 6 0;
