#N canvas 465 230 830 859 12;
#X obj 47 502 line~;
#X text 125 449 start (samples) \; end (samples) \; time (ms);
#X obj 47 544 tabread4~ grainArrayL;
#X obj 206 544 tabread4~ grainArrayR;
#X floatatom 45 229 15 0 0 0 - - -;
#X text 157 231 start points in samples;
#X obj 45 252 t f f;
#X floatatom 135 301 10 0 0 0 - - -;
#X text 213 299 grain duration ms;
#X obj 45 420 pack f f f;
#X obj 78 326 +;
#X obj 135 419 * 44.1;
#X msg 46 465 \$1 \, \$2 \$3;
#X obj 173 367 samplerate~;
#X obj 172 340 loadbang;
#X obj 173 391 / 1000;
#X text 264 369 automatically adjust sample \; rate in case it's not
44.1K;
#X obj 45 54 inlet;
#X obj 135 273 r grainDur;
#X obj 46 797 outlet~;
#X obj 206 798 outlet~;
#X text 202 16 GRAIN SUBPATCH;
#X obj 45 78 t f b, f 67;
#X obj 511 107 t b b;
#X obj 509 184 del 50;
#X msg 569 183 1;
#X msg 509 213 0;
#X obj 509 257 pack f 50;
#X obj 512 557 line~;
#X obj 47 596 *~;
#X obj 206 600 *~;
#X obj 582 106 r grainDur;
#X obj 582 130 - 50;
#X text 630 132 make it so that the \; grain volume starts \; to decay
50ms before \; the end of the grain;
#X obj 216 274 loadmess 600;
#X obj 638 638 random 1000;
#X obj 638 662 / 1000;
#X msg 576 604 1;
#X obj 638 697 expr 1 - $f1;
#X obj 539 775 print;
#X obj 206 753 *~;
#X obj 47 754 *~;
#X obj 640 556 r grainRandPanTrig;
#X obj 637 602 gate;
#X obj 614 487 r grainRandPanToggle;
#X obj 574 539 sel 0;
#X obj 576 570 bng 15 250 50 0 empty empty empty 17 7 0 10 -262144
-1 -1;
#X obj 642 524 print;
#X connect 0 0 2 0;
#X connect 0 0 3 0;
#X connect 2 0 29 0;
#X connect 3 0 30 0;
#X connect 4 0 6 0;
#X connect 6 0 9 0;
#X connect 6 1 10 0;
#X connect 7 0 11 0;
#X connect 7 0 9 2;
#X connect 9 0 12 0;
#X connect 10 0 9 1;
#X connect 11 0 10 1;
#X connect 12 0 0 0;
#X connect 13 0 15 0;
#X connect 14 0 13 0;
#X connect 15 0 11 1;
#X connect 17 0 22 0;
#X connect 18 0 7 0;
#X connect 22 0 4 0;
#X connect 22 1 23 0;
#X connect 23 0 24 0;
#X connect 23 0 25 0;
#X connect 24 0 26 0;
#X connect 25 0 27 0;
#X connect 26 0 27 0;
#X connect 27 0 28 0;
#X connect 28 0 29 1;
#X connect 28 0 30 1;
#X connect 29 0 41 0;
#X connect 30 0 40 0;
#X connect 31 0 32 0;
#X connect 32 0 24 1;
#X connect 34 0 7 0;
#X connect 35 0 36 0;
#X connect 36 0 38 0;
#X connect 36 0 39 0;
#X connect 36 0 41 1;
#X connect 37 0 40 1;
#X connect 37 0 41 1;
#X connect 38 0 40 1;
#X connect 38 0 39 0;
#X connect 40 0 20 0;
#X connect 41 0 19 0;
#X connect 42 0 43 1;
#X connect 43 0 35 0;
#X connect 44 0 43 0;
#X connect 44 0 45 0;
#X connect 44 0 47 0;
#X connect 45 0 46 0;
#X connect 46 0 37 0;
