#N canvas 1365 151 1077 731 12;
#X obj 47 228 mixer, f 56;
#X obj 46 38 adc~ 1 2 3 4 5 6 7 8, f 56;
#X obj 937 48 osc-rcv2;
#X obj 934 124 loadbang;
#X obj 934 148 delay 1000;
#X msg 934 172 \; pd dsp 1;
#X obj 274 164 freeverb~;
#X msg 317 123 dry 0.3 wet 0.7 roomsize 0.8;
#X obj 317 88 loadbang;
#X connect 1 0 0 0;
#X connect 1 1 0 1;
#X connect 1 2 0 2;
#X connect 1 3 0 3;
#X connect 1 4 6 0;
#X connect 3 0 4 0;
#X connect 4 0 5 0;
#X connect 6 0 0 4;
#X connect 7 0 6 0;
#X connect 8 0 7 0;
