#N canvas 100 423 1156 995 12;
#X obj 46 143 mixer, f 40;
#X obj 46 38 adc~ 1 2 3 4 5 6 7 8, f 40;
#X obj 130 256 osc-rcv2;
#X obj 229 242 loadbang;
#X obj 229 266 delay 1000;
#X msg 229 290 \; pd dsp 1;
#X obj 46 179 dac~ 1 2 3 4, f 40;
#X text 65 204 SPEAKERS;
#X text 270 207 OBS;
#X text 160 12 V;
#X text 200 13 A;
#X text 62 13 S;
#X text 122 11 M, f 2;
#X text 295 120 Pd;
#X obj 283 76 r~ pd-out-l;
#X obj 323 104 r~ pd-out-r;
#X text 295 8 Pd;
#X obj 410 242 snapshot~;
#X obj 471 189 metro 20;
#X obj 473 159 tgl 15 0 empty empty empty 17 7 0 10 -262144 -1 -1 1
1;
#X floatatom 406 310 5 0 0 0 - - -;
#X obj 130 292 s chat_cmd;
#N canvas 0 126 294 242 force-dmx-connection 0;
#X obj 17 38 tgl 15 0 empty empty empty 17 7 0 10 -262144 -1 -1 1 1
;
#X obj 17 58 metro 2000;
#X obj 17 113 1;
#X obj 48 89 + 1;
#X obj 17 148 / 100;
#X floatatom 17 174 5 0 0 0 - - -;
#X obj 48 113 % 2;
#X text 89 88 keep sending messages \; to the light so we keep \; the
connection open;
#X obj 17 15 loadbang;
#X obj 17 202 qlc-ctrl, f 27;
#X connect 0 0 1 0;
#X connect 1 0 2 0;
#X connect 2 0 3 0;
#X connect 2 0 4 0;
#X connect 3 0 6 0;
#X connect 4 0 5 0;
#X connect 5 0 9 5;
#X connect 6 0 2 1;
#X connect 8 0 0 0;
#X restore 377 30 pd force-dmx-connection;
#X obj 28 303 vsl 15 128 0 1 0 0 empty empty empty 0 -9 0 10 -262144
-1 -1 400 1;
#X obj 30 266 / 127;
#X obj 30 242 r s6;
#X obj 28 446 s lights-master;
#X connect 0 0 6 0;
#X connect 0 1 6 1;
#X connect 0 2 6 2;
#X connect 0 3 6 3;
#X connect 1 0 0 0;
#X connect 1 1 0 1;
#X connect 1 2 0 2;
#X connect 1 3 0 3;
#X connect 1 4 0 4;
#X connect 2 0 21 0;
#X connect 3 0 4 0;
#X connect 4 0 5 0;
#X connect 14 0 0 6;
#X connect 15 0 0 7;
#X connect 15 0 17 0;
#X connect 17 0 20 0;
#X connect 18 0 17 0;
#X connect 19 0 18 0;
#X connect 23 0 26 0;
#X connect 24 0 23 0;
#X connect 25 0 24 0;
