#N canvas 1345 152 1077 489 12;
#X obj 47 228 mixer, f 56;
#X obj 46 38 adc~ 1 2 3 4 5 6 7 8, f 56;
#X obj 937 48 osc-rcv2;
#X obj 934 124 loadbang;
#X obj 934 148 delay 1000;
#X msg 934 172 \; pd dsp 1;
#X msg 337 108 dry 0.3 wet 0.7 roomsize 0.8;
#X obj 511 157 loadbang;
#X obj 54 426 dac~ 1 2 3 4, f 55;
#X text 72 451 SPEAKERS;
#X text 356 452 OBS;
#X text 60 12 MIC;
#X text 162 13 SYSTEM;
#X text 254 14 VOICE;
#X msg 394 162 dry 1 \, wet 0;
#X text 297 14 ANIMALS;
#X obj 698 115 osc-rcv;
#X obj 604 377 qlc-ctrl, f 27;
#X obj 605 215 osc~ 0.3;
#X obj 605 291 snapshot~;
#X obj 729 264 metro 20;
#X obj 743 222 tgl 15 0 empty empty empty 17 7 0 10 -262144 -1 -1 1
1;
#X obj 605 315 + 1;
#X obj 605 339 / 2;
#X obj 267 156 freeverb~;
#X connect 0 0 8 2;
#X connect 0 0 8 3;
#X connect 0 2 8 0;
#X connect 0 2 8 2;
#X connect 0 3 8 1;
#X connect 0 3 8 3;
#X connect 0 4 8 0;
#X connect 0 4 8 1;
#X connect 0 4 8 3;
#X connect 0 4 8 2;
#X connect 0 5 8 0;
#X connect 0 5 8 1;
#X connect 0 5 8 2;
#X connect 0 5 8 3;
#X connect 0 6 8 0;
#X connect 0 7 8 1;
#X connect 1 0 0 0;
#X connect 1 2 0 2;
#X connect 1 3 0 3;
#X connect 1 4 24 0;
#X connect 1 5 0 5;
#X connect 3 0 4 0;
#X connect 4 0 5 0;
#X connect 6 0 24 0;
#X connect 7 0 14 0;
#X connect 18 0 19 0;
#X connect 19 0 22 0;
#X connect 20 0 19 0;
#X connect 21 0 20 0;
#X connect 22 0 23 0;
#X connect 23 0 17 1;
#X connect 24 0 0 4;
