#N canvas 1296 375 1077 731 12;
#X obj 47 228 mixer, f 56;
#X obj 46 38 adc~ 1 2 3 4 5 6 7 8, f 56;
#X obj 937 48 osc-rcv2;
#X obj 934 124 loadbang;
#X obj 934 148 delay 1000;
#X msg 934 172 \; pd dsp 1;
#X obj 274 164 freeverb~;
#X msg 317 123 dry 0.3 wet 0.7 roomsize 0.8;
#X obj 317 88 loadbang;
#X obj 54 426 dac~ 1 2 3 4, f 55;
#X text 72 451 SPEAKERS;
#X text 356 452 OBS;
#X text 60 12 MIC;
#X text 162 13 SYSTEM;
#X text 254 14 VOICE;
#X msg 394 162 dry 1 \, wet 0;
#X text 297 14 ANIMALS;
#X connect 0 2 9 0;
#X connect 0 2 9 2;
#X connect 0 3 9 1;
#X connect 0 3 9 3;
#X connect 0 4 9 0;
#X connect 0 4 9 1;
#X connect 0 5 9 0;
#X connect 0 5 9 1;
#X connect 0 6 9 0;
#X connect 0 7 9 1;
#X connect 1 0 0 0;
#X connect 1 2 0 2;
#X connect 1 3 0 3;
#X connect 1 4 6 0;
#X connect 1 5 0 5;
#X connect 3 0 4 0;
#X connect 4 0 5 0;
#X connect 6 0 0 4;
#X connect 7 0 6 0;
#X connect 8 0 7 0;
#X connect 15 0 6 0;
