#N canvas 1200 96 1339 634 12;
#X obj 45 69 mixer, f 40;
#X obj 46 38 adc~ 1 2 3 4 5 6 7 8, f 40;
#X obj 889 49 osc-rcv2;
#X obj 983 52 loadbang;
#X obj 983 76 delay 1000;
#X msg 983 100 \; pd dsp 1;
#X obj 46 105 dac~ 1 2 3 4, f 40;
#X text 64 130 SPEAKERS;
#X text 269 133 OBS;
#X obj 850 224 qlc-ctrl, f 27;
#X obj 605 215 osc~ 0.3;
#X obj 605 291 snapshot~;
#X obj 729 264 metro 20;
#X obj 743 222 tgl 15 0 empty empty empty 17 7 0 10 -262144 -1 -1 0
1;
#X obj 605 315 + 1;
#X obj 605 339 / 2;
#X text 160 12 V;
#X text 200 13 A;
#X text 62 13 S;
#X text 122 11 M, f 2;
#N canvas 0 126 294 242 force-dmx-connection 0;
#X obj 17 38 tgl 15 0 empty empty empty 17 7 0 10 -262144 -1 -1 1 1
;
#X obj 17 58 metro 2000;
#X obj 17 113 1;
#X obj 48 89 + 1;
#X obj 17 148 / 100;
#X floatatom 17 174 5 0 0 0 - - -;
#X obj 48 113 % 2;
#X text 89 88 keep sending messages \; to the light so we keep \; the
connection open;
#X obj 17 15 loadbang;
#X obj 17 202 qlc-ctrl, f 27;
#X connect 0 0 1 0;
#X connect 1 0 2 0;
#X connect 2 0 3 0;
#X connect 2 0 4 0;
#X connect 3 0 6 0;
#X connect 4 0 5 0;
#X connect 5 0 9 5;
#X connect 6 0 2 1;
#X connect 8 0 0 0;
#X restore 890 17 pd force-dmx-connection;
#X connect 0 0 6 0;
#X connect 0 1 6 1;
#X connect 0 2 6 2;
#X connect 0 3 6 3;
#X connect 1 0 0 0;
#X connect 1 1 0 1;
#X connect 1 2 0 2;
#X connect 1 3 0 3;
#X connect 1 4 0 4;
#X connect 1 5 0 5;
#X connect 3 0 4 0;
#X connect 4 0 5 0;
#X connect 10 0 11 0;
#X connect 11 0 14 0;
#X connect 12 0 11 0;
#X connect 13 0 12 0;
#X connect 14 0 15 0;
