#N canvas 170 68 1171 952 12;
#X obj 153 115 r Arduino;
#X obj 153 140 route A0;
#X msg 153 329 \$1 5;
#X obj 153 355 line;
#X obj 436 210 r Arduino;
#X obj 436 234 route A1;
#X obj 157 789 freeverb~;
#X obj 418 592 r Arduino;
#X obj 418 616 route 2;
#X obj 418 640 sel 1;
#N canvas 537 99 1143 777 8-synths 0;
#X obj 34 158 inlet;
#X obj 45 722 outlet~;
#X obj 239 331 osc~;
#X obj 239 355 *~ 0.1;
#X obj 36 267 vline~;
#X obj 35 486 *~;
#X floatatom 335 142 5 0 0 0 - - -;
#X obj 240 192 *~ 1;
#X obj 315 332 osc~;
#X obj 315 356 *~ 0.1;
#X obj 405 332 osc~;
#X obj 405 356 *~ 0.1;
#X obj 481 333 osc~;
#X obj 481 357 *~ 0.1;
#X obj 561 332 osc~;
#X obj 561 356 *~ 0.1;
#X obj 637 333 osc~;
#X obj 637 357 *~ 0.1;
#X obj 727 333 osc~;
#X obj 727 357 *~ 0.1;
#X obj 803 334 osc~;
#X obj 803 358 *~ 0.1;
#X obj 310 192 *~ 1.423;
#X obj 402 195 *~ 1.032;
#X obj 482 193 *~ 1.209;
#X obj 562 193 *~ 1.874;
#X obj 638 194 *~ 1.481;
#X obj 728 194 *~ 1.148;
#X obj 804 195 *~ 1.562;
#X obj 36 304 *~;
#X msg 38 213 1;
#X obj 334 96 inlet;
#X text 81 161 trigger;
#X text 383 96 tune;
#X obj 262 616 inlet;
#X text 309 616 volume;
#X obj 47 655 *~;
#X obj 171 487 *~;
#X obj 118 722 outlet~;
#X obj 121 657 *~;
#X obj 355 542 inlet;
#X text 401 542 width;
#N canvas 1045 533 432 320 width 0;
#X obj 205 198 +~;
#X obj 205 222 *~;
#X obj 62 151 *~;
#X obj 136 152 *~;
#X obj 279 162 expr 1 - $f1;
#X obj 61 269 outlet~;
#X obj 133 268 outlet~;
#X obj 59 59 inlet~;
#X obj 143 58 inlet~;
#X obj 293 68 inlet;
#X floatatom 305 243 5 0 0 0 - - -;
#X connect 0 0 1 0;
#X connect 1 0 5 0;
#X connect 1 0 6 0;
#X connect 2 0 5 0;
#X connect 3 0 6 0;
#X connect 4 0 10 0;
#X connect 4 0 1 1;
#X connect 7 0 2 0;
#X connect 7 0 0 0;
#X connect 8 0 3 0;
#X connect 8 0 0 1;
#X connect 9 0 4 0;
#X connect 9 0 3 1;
#X connect 9 0 2 1;
#X restore 51 580 pd width;
#X obj 804 301 +~;
#X obj 727 297 +~;
#X obj 631 290 +~;
#X obj 561 288 +~;
#X obj 482 289 +~;
#X obj 405 285 +~;
#X obj 309 278 +~;
#X obj 239 276 +~;
#X obj 835 258 my_drunk;
#X obj 743 252 my_drunk;
#X obj 650 250 my_drunk;
#X obj 573 253 my_drunk;
#X obj 499 245 my_drunk;
#X obj 419 240 my_drunk;
#X obj 326 238 my_drunk;
#X obj 253 241 my_drunk;
#X msg 38 242 \$1 400 \, 0 20000 400;
#X connect 0 0 30 0;
#X connect 2 0 3 0;
#X connect 3 0 5 1;
#X connect 4 0 29 0;
#X connect 4 0 29 1;
#X connect 5 0 42 0;
#X connect 6 0 7 0;
#X connect 6 0 22 0;
#X connect 6 0 23 0;
#X connect 6 0 24 0;
#X connect 6 0 25 0;
#X connect 6 0 26 0;
#X connect 6 0 27 0;
#X connect 6 0 28 0;
#X connect 7 0 50 0;
#X connect 8 0 9 0;
#X connect 9 0 37 1;
#X connect 10 0 11 0;
#X connect 11 0 5 1;
#X connect 12 0 13 0;
#X connect 13 0 37 1;
#X connect 14 0 15 0;
#X connect 15 0 5 1;
#X connect 16 0 17 0;
#X connect 17 0 37 1;
#X connect 18 0 19 0;
#X connect 19 0 5 1;
#X connect 20 0 21 0;
#X connect 21 0 37 1;
#X connect 22 0 49 0;
#X connect 23 0 48 0;
#X connect 24 0 47 0;
#X connect 25 0 46 0;
#X connect 26 0 45 0;
#X connect 27 0 44 0;
#X connect 28 0 43 0;
#X connect 29 0 5 0;
#X connect 29 0 37 0;
#X connect 30 0 59 0;
#X connect 31 0 6 0;
#X connect 34 0 36 1;
#X connect 34 0 39 1;
#X connect 36 0 1 0;
#X connect 37 0 42 1;
#X connect 39 0 38 0;
#X connect 40 0 42 2;
#X connect 42 0 36 0;
#X connect 42 1 39 0;
#X connect 43 0 20 0;
#X connect 44 0 18 0;
#X connect 45 0 16 0;
#X connect 46 0 14 0;
#X connect 47 0 12 0;
#X connect 48 0 10 0;
#X connect 49 0 8 0;
#X connect 50 0 2 0;
#X connect 51 0 43 1;
#X connect 52 0 44 1;
#X connect 53 0 45 1;
#X connect 54 0 46 1;
#X connect 55 0 47 1;
#X connect 56 0 48 1;
#X connect 57 0 49 1;
#X connect 58 0 50 1;
#X connect 59 0 4 0;
#X restore 418 672 pd 8-synths;
#X f 23;
#X floatatom 495 635 5 0 0 0 - - -;
#N canvas 617 331 379 449 timer 0;
#X obj 153 27 inlet;
#X obj 78 375 outlet;
#X obj 60 319 metro;
#X obj 153 77 - 350;
#X floatatom 151 224 5 0 0 0 - - -;
#X msg 151 252 \$1 500;
#X obj 151 303 line;
#X obj 151 112 * 4.5;
#X obj 51 270 loadbang;
#X obj 151 143 expr 1300 - $f1;
#X obj 151 167 max 50;
#X connect 0 0 3 0;
#X connect 2 0 1 0;
#X connect 3 0 7 0;
#X connect 4 0 5 0;
#X connect 5 0 6 0;
#X connect 6 0 2 1;
#X connect 7 0 9 0;
#X connect 8 0 2 0;
#X connect 9 0 10 0;
#X connect 10 0 4 0;
#X restore 249 331 pd timer;
#N canvas 523 148 582 535 fm-synth 0;
#X obj 69 272 *~;
#N canvas 0 23 269 266 vol-env 0;
#X obj 42 37 inlet;
#X obj 41 101 vline~;
#X obj 41 125 *~;
#X msg 41 74 1 3 \, 0.4 20 30 \, 0 100 30;
#X obj 40 169 outlet~;
#X connect 0 0 3 0;
#X connect 1 0 2 0;
#X connect 1 0 2 1;
#X connect 2 0 4 0;
#X connect 3 0 1 0;
#X restore 193 193 pd vol-env;
#N canvas 881 134 527 387 fm-osc 0;
#X obj 189 28 inlet;
#X obj 192 294 osc~ 440;
#X obj 270 160 osc~;
#X obj 252 203 *~;
#X obj 226 159 *~ 4;
#X obj 252 242 *~;
#X obj 270 130 *~ 0.25;
#X obj 192 318 outlet~;
#X obj 376 108 inlet;
#X obj 377 169 vline~;
#X obj 377 210 *~;
#X msg 377 139 1 50 \, 0 500 20;
#X text 425 111 trigger;
#X text 241 36 tune;
#X obj 46 68 r tune_fm_synth;
#X connect 0 0 1 0;
#X connect 0 0 4 0;
#X connect 0 0 6 0;
#X connect 1 0 7 0;
#X connect 2 0 3 1;
#X connect 3 0 5 0;
#X connect 4 0 3 0;
#X connect 5 0 1 0;
#X connect 6 0 2 0;
#X connect 8 0 11 0;
#X connect 9 0 10 0;
#X connect 9 0 10 1;
#X connect 10 0 5 1;
#X connect 11 0 9 0;
#X connect 14 0 6 0;
#X connect 14 0 4 0;
#X connect 14 0 1 0;
#X restore 68 191 pd fm-osc;
#X obj 76 62 inlet;
#X text 133 62 tune;
#X obj 247 61 inlet;
#X text 307 68 trigger;
#X obj 69 296 outlet~;
#X connect 0 0 7 0;
#X connect 1 0 0 1;
#X connect 2 0 0 0;
#X connect 3 0 2 0;
#X connect 5 0 1 0;
#X connect 5 0 2 1;
#X restore 154 422 pd fm-synth;
#N canvas 987 276 450 559 tune-synths 0;
#X obj 78 319 outlet;
#X obj 73 46 inlet;
#X floatatom 75 153 5 0 0 0 - - -;
#X obj 75 263 line;
#X obj 75 118 * 4.5;
#X msg 75 212 \$1 3000;
#X obj 75 83 - 400;
#X connect 1 0 6 0;
#X connect 2 0 5 0;
#X connect 3 0 0 0;
#X connect 4 0 2 0;
#X connect 5 0 3 0;
#X connect 6 0 4 0;
#X restore 523 541 pd tune-synths;
#X obj 551 585 vsl 15 70 0 3 0 0 empty 8-synths_vol_slider vol 0 -9
0 10 -262144 -1 -1 4600 1;
#X obj 588 584 vsl 15 70 0 1 0 0 empty 8-synths_width_slider width
0 -9 0 10 -262144 -1 -1 4830 1;
#X obj 924 301 vsl 15 128 0.02 2 1 0 drunk_time drunk_time_slider drunk_time
0 -9 0 10 -262144 -1 -1 12085 1;
#X obj 847 301 vsl 15 128 5 150 1 1 drunk_range drunk_range_slider
drunk_range 0 -9 0 10 -262144 -1 -1 11542 1;
#X text 843 460 sends to the random pitch \; variation in 8-synths
;
#X obj 343 731 loadbang;
#X obj 155 734 *~ 1;
#X obj 153 869 master-ctrl;
#X obj 235 802 vsl 15 50 0 127 0 0 empty empty empty 0 -9 0 10 -262144
-1 -1 0 1;
#X obj 841 222 osc-rcv;
#X obj 839 572 loadbang;
#X obj 212 497 sig~;
#X obj 174 688 delwrite~ synth 500;
#X obj 212 522 delread4~ synth;
#X obj 151 646 *~ 0.8;
#X obj 212 449 r delay_time;
#X obj 211 579 r delay_feedback;
#X floatatom 237 606 5 0 0.9999 0 - - -;
#X floatatom 436 314 5 0 0 0 - - -;
#X obj 446 286 r timer;
#X msg 839 610 \; drunk_time_slider 1.6 \; drunk_range_slider 110 \;
8-synths_vol_slider 2 \; 8-synths_width_slider 0.7 \; tune_fm_synth
680 \; delay_time 150 \; delay_feedback 0.9 \; timer 440 \;;
#X msg 343 765 dry 0.2 \, wet 0.05;
#X floatatom 227 473 5 2 500 0 - - -;
#X obj 153 164 / 1023;
#X obj 154 192 *;
#X obj 153 303 * 4900;
#X obj 251 126 tgl 15 0 empty empty empty 17 7 0 10 -262144 -1 -1 0
1;
#X obj 251 156 sel 1;
#X msg 244 186 100;
#X obj 153 276 + 0;
#X msg 287 189 0;
#X obj 255 216 t b f;
#X obj 154 243 f;
#X text 274 125 weirdness;
#X text 541 15 precision pot on A0 \; thermistor with 10K resistor
on A2 \; PIR on D2;
#X connect 0 0 1 0;
#X connect 1 0 38 0;
#X connect 2 0 3 0;
#X connect 3 0 13 0;
#X connect 4 0 5 0;
#X connect 5 0 33 0;
#X connect 6 0 22 0;
#X connect 6 1 22 1;
#X connect 7 0 8 0;
#X connect 8 0 9 0;
#X connect 9 0 10 0;
#X connect 10 0 6 0;
#X connect 10 1 6 1;
#X connect 11 0 10 2;
#X connect 12 0 13 1;
#X connect 13 0 29 0;
#X connect 14 0 11 0;
#X connect 15 0 10 1;
#X connect 16 0 10 3;
#X connect 20 0 36 0;
#X connect 21 0 6 0;
#X connect 21 0 6 1;
#X connect 23 0 22 2;
#X connect 25 0 35 0;
#X connect 26 0 28 0;
#X connect 28 0 29 0;
#X connect 29 0 21 0;
#X connect 29 0 27 0;
#X connect 30 0 26 0;
#X connect 31 0 29 1;
#X connect 32 0 29 1;
#X connect 33 0 14 0;
#X connect 33 0 12 0;
#X connect 34 0 33 0;
#X connect 36 0 6 0;
#X connect 37 0 26 0;
#X connect 38 0 39 0;
#X connect 38 0 39 1;
#X connect 39 0 47 0;
#X connect 39 0 47 1;
#X connect 40 0 2 0;
#X connect 41 0 42 0;
#X connect 42 0 43 0;
#X connect 42 1 45 0;
#X connect 43 0 46 0;
#X connect 44 0 40 0;
#X connect 45 0 46 0;
#X connect 46 0 47 0;
#X connect 46 1 44 1;
#X connect 47 0 44 0;
