#N canvas 23 53 792 643 12;
#X obj 64 290 cos~;
#X obj 61 535 master-ctrl, f 22;
#X obj 257 406 vsl 15 128 0 127 0 0 empty empty empty 0 -9 0 10 -262144
-1 -1 1100 1;
#X obj 115 291 cos~;
#N canvas 953 104 353 315 stereo-flipper 0;
#X obj 23 86 inlet~;
#X obj 89 87 inlet~;
#X obj 22 255 outlet~;
#X obj 88 255 outlet~;
#X obj 22 226 *~;
#X obj 88 226 *~;
#X obj 40 155 *~;
#X obj 109 155 *~;
#X floatatom 176 180 5 0 0 0 - - -;
#X obj 176 157 expr 1 - $f1;
#X obj 139 47 inlet;
#X obj 178 79 min 1;
#X obj 178 103 max 0;
#X text 145 18 input between 0-1;
#X obj 210 52 hsl 128 15 0 1 0 0 empty empty empty -2 -8 0 10 -262144
-1 -1 0 1;
#X connect 0 0 4 0;
#X connect 0 0 6 0;
#X connect 1 0 5 0;
#X connect 1 0 7 0;
#X connect 4 0 2 0;
#X connect 5 0 3 0;
#X connect 6 0 3 0;
#X connect 7 0 2 0;
#X connect 8 0 5 1;
#X connect 8 0 4 1;
#X connect 9 0 8 0;
#X connect 10 0 11 0;
#X connect 11 0 12 0;
#X connect 12 0 9 0;
#X connect 12 0 7 1;
#X connect 12 0 6 1;
#X connect 14 0 11 0;
#X restore 59 358 pd stereo-flipper;
#X obj 180 280 vsl 15 40 0 1 0 0 empty empty empty 0 -9 0 10 -262144
-1 -1 500 1;
#X obj 497 395 vline~;
#X obj 497 419 s~ env1;
#X obj 114 252 *~;
#X obj 65 255 *~;
#X msg 179 255 0.75;
#X obj 241 193 loadbang;
#X obj 501 247 metro 500;
#X obj 501 284 random 1000;
#X obj 500 217 tgl 15 0 empty empty empty 17 7 0 10 -262144 -1 -1 1
1;
#X obj 501 313 / 1000;
#X floatatom 587 196 5 0 0 0 - - -;
#X obj 569 357 pack f f;
#X obj 438 291 s trig;
#N canvas 0 23 1145 711 phasors 0;
#X obj 140 457 +~;
#X obj 282 314 +~;
#X obj 282 339 cos~;
#X obj 537 328 +~;
#X obj 537 353 cos~;
#X floatatom 586 350 5 0 0 0 - - -;
#X obj 685 299 +~;
#X obj 685 324 cos~;
#X floatatom 734 321 5 0 0 0 - - -;
#X obj 818 286 +~;
#X obj 818 311 cos~;
#X floatatom 867 308 5 0 0 0 - - -;
#X obj 194 456 +~;
#X obj 685 402 *~;
#X obj 721 378 r~ env1;
#X obj 656 232 phasor~ 6.05;
#X obj 802 235 phasor~ -1.7;
#X obj 685 348 *~ 0.4;
#X obj 818 335 *~ -0.25;
#X obj 537 377 *~ 1;
#X obj 282 363 *~ 0.25;
#X obj 141 291 phasor~ 220;
#X obj 281 237 phasor~ 44;
#X obj 501 228 phasor~ 440;
#X msg 33 175 1000;
#X msg 73 176 220;
#X msg 107 176 30;
#X msg 138 177 5000;
#X obj 126 552 outlet~;
#X obj 211 553 outlet~;
#X obj 302 33 inlet;
#X obj 103 103 random 4;
#X obj 103 127 sel 0 1 2 3;
#X msg 386 151 0.25;
#X msg 247 151 44;
#X msg 285 150 0.3;
#X obj 278 89 random 6;
#X obj 278 113 sel 0 1 2 3 4 5;
#X msg 325 149 1.5;
#X msg 466 150 0.13;
#X msg 429 150 0.1;
#X connect 0 0 28 0;
#X connect 1 0 2 0;
#X connect 2 0 20 0;
#X connect 3 0 4 0;
#X connect 4 0 19 0;
#X connect 5 0 19 1;
#X connect 6 0 7 0;
#X connect 7 0 17 0;
#X connect 8 0 17 1;
#X connect 9 0 10 0;
#X connect 10 0 18 0;
#X connect 11 0 18 1;
#X connect 12 0 29 0;
#X connect 13 0 3 1;
#X connect 14 0 13 1;
#X connect 15 0 6 0;
#X connect 16 0 9 0;
#X connect 17 0 13 0;
#X connect 18 0 6 1;
#X connect 19 0 1 1;
#X connect 19 0 12 1;
#X connect 20 0 0 1;
#X connect 21 0 0 0;
#X connect 21 0 12 0;
#X connect 22 0 1 0;
#X connect 23 0 3 0;
#X connect 24 0 21 0;
#X connect 25 0 21 0;
#X connect 26 0 21 0;
#X connect 27 0 21 0;
#X connect 30 0 31 0;
#X connect 30 0 36 0;
#X connect 31 0 32 0;
#X connect 32 0 24 0;
#X connect 32 1 25 0;
#X connect 32 2 26 0;
#X connect 32 3 27 0;
#X connect 33 0 20 1;
#X connect 34 0 22 0;
#X connect 35 0 22 0;
#X connect 36 0 37 0;
#X connect 37 0 34 0;
#X connect 37 1 35 0;
#X connect 37 2 38 0;
#X connect 37 3 33 0;
#X connect 37 4 40 0;
#X connect 37 5 39 0;
#X connect 38 0 22 0;
#X connect 39 0 20 1;
#X connect 40 0 20 1;
#X restore 59 64 pd phasors;
#X obj 59 29 r trig;
#N canvas 0 23 855 704 rev 0;
#X obj 349 211 freeverb~;
#X msg 6 110 wet 0.2 \, dry 0 \, damping 0.8 \, roomsize 0.99;
#X obj 346 246 hip~ 100;
#X obj 418 248 hip~ 100;
#X obj 375 107 inlet~;
#X obj 459 107 inlet~;
#X obj 69 60 loadbang;
#X obj 352 311 outlet~;
#X obj 435 310 outlet~;
#X connect 0 0 2 0;
#X connect 0 0 3 0;
#X connect 1 0 0 0;
#X connect 2 0 7 0;
#X connect 3 0 8 0;
#X connect 4 0 0 0;
#X connect 5 0 0 1;
#X connect 6 0 1 0;
#X restore 78 505 pd rev;
#X floatatom 195 390 5 0 0 0 - - -;
#X obj 61 474 +~;
#X obj 135 473 +~;
#N canvas 0 23 883 720 delay 0;
#X obj 57 274 delwrite~ delL 500;
#X obj 372 231 delwrite~ delR 500;
#X obj 87 215 delread4~ delL;
#X obj 372 170 delread4~ delR;
#X obj 375 120 sig~;
#X obj 86 243 *~ 0.5;
#X obj 372 196 *~ 0.5;
#X obj 98 35 inlet~;
#X obj 213 39 inlet~;
#X obj 79 393 outlet~;
#X obj 214 393 outlet~;
#X obj 381 43 inlet;
#X connect 2 0 5 0;
#X connect 3 0 6 0;
#X connect 4 0 2 0;
#X connect 4 0 3 0;
#X connect 5 0 0 0;
#X connect 5 0 9 0;
#X connect 6 0 1 0;
#X connect 6 0 10 0;
#X connect 7 0 0 0;
#X connect 8 0 1 0;
#X connect 11 0 4 0;
#X restore 83 426 pd delay;
#X obj 161 169 vline~;
#X obj 161 112 r trig;
#X msg 161 139 1 \, 0.8 40 0 \, 0 440 40;
#X connect 0 0 4 0;
#X connect 2 0 1 2;
#X connect 3 0 4 1;
#X connect 4 0 23 0;
#X connect 4 0 25 0;
#X connect 4 1 24 0;
#X connect 4 1 25 1;
#X connect 5 0 4 2;
#X connect 6 0 7 0;
#X connect 8 0 3 0;
#X connect 9 0 0 0;
#X connect 10 0 5 0;
#X connect 11 0 10 0;
#X connect 12 0 13 0;
#X connect 12 0 18 0;
#X connect 13 0 15 0;
#X connect 14 0 12 0;
#X connect 15 0 6 0;
#X connect 15 0 17 0;
#X connect 16 0 12 1;
#X connect 16 0 17 1;
#X connect 17 0 6 0;
#X connect 19 0 9 0;
#X connect 19 1 8 0;
#X connect 20 0 19 0;
#X connect 21 0 1 0;
#X connect 21 1 1 1;
#X connect 22 0 25 2;
#X connect 23 0 21 0;
#X connect 23 0 1 0;
#X connect 24 0 21 1;
#X connect 24 0 1 1;
#X connect 25 0 23 1;
#X connect 25 1 24 1;
#X connect 26 0 9 1;
#X connect 26 0 8 1;
#X connect 27 0 28 0;
#X connect 28 0 26 0;
