#N canvas 373 224 530 418 12;
#X obj 60 311 outlet~;
#X obj 142 46 inlet~;
#X obj 363 50 inlet~;
#X obj 33 45 inlet;
#X text 77 47 osc;
#X text 417 52 phase offset;
#X obj 62 156 +~;
#X obj 62 181 cos~;
#X obj 61 231 *~, f 12;
#X obj 33 89 phasor~ 1;
#X text 194 48 env;
#X obj 226 48 inlet~;
#X text 278 50 env offset;
#X obj 141 190 *~, f 13;
#X connect 1 0 13 0;
#X connect 2 0 6 1;
#X connect 3 0 9 0;
#X connect 6 0 7 0;
#X connect 7 0 8 0;
#X connect 8 0 0 0;
#X connect 9 0 6 0;
#X connect 11 0 13 1;
#X connect 13 0 8 1;
