#N canvas 96 375 792 643 12;
#X obj 64 290 cos~;
#X obj 61 535 master-ctrl, f 22;
#X obj 115 291 cos~;
#N canvas 953 104 353 315 stereo-flipper 0;
#X obj 23 86 inlet~;
#X obj 89 87 inlet~;
#X obj 22 255 outlet~;
#X obj 88 255 outlet~;
#X obj 22 226 *~;
#X obj 88 226 *~;
#X obj 40 155 *~;
#X obj 109 155 *~;
#X floatatom 176 180 5 0 0 0 - - -;
#X obj 176 157 expr 1 - $f1;
#X obj 139 47 inlet;
#X obj 178 79 min 1;
#X obj 178 103 max 0;
#X text 145 18 input between 0-1;
#X obj 210 52 hsl 128 15 0 1 0 0 empty empty empty -2 -8 0 10 -262144
-1 -1 0 1;
#X connect 0 0 4 0;
#X connect 0 0 6 0;
#X connect 1 0 5 0;
#X connect 1 0 7 0;
#X connect 4 0 2 0;
#X connect 5 0 3 0;
#X connect 6 0 3 0;
#X connect 7 0 2 0;
#X connect 8 0 5 1;
#X connect 8 0 4 1;
#X connect 9 0 8 0;
#X connect 10 0 11 0;
#X connect 11 0 12 0;
#X connect 12 0 9 0;
#X connect 12 0 7 1;
#X connect 12 0 6 1;
#X connect 14 0 11 0;
#X restore 59 358 pd stereo-flipper;
#X obj 180 280 vsl 15 40 0 1 0 0 empty empty empty 0 -9 0 10 -262144
-1 -1 3400 1;
#X obj 497 395 vline~;
#X obj 497 419 s~ env1;
#X obj 114 252 *~;
#X obj 65 255 *~;
#X msg 179 255 0.75;
#X obj 241 193 loadbang;
#X obj 501 192 metro 500;
#X obj 501 284 random 1000;
#X obj 500 162 tgl 15 0 empty empty empty 17 7 0 10 -262144 -1 -1 1
1;
#X obj 501 313 / 1000;
#X floatatom 603 73 5 0 0 0 - - -;
#X obj 569 357 pack f f;
#X obj 438 265 s trig;
#N canvas 457 44 1145 711 phasors 1;
#X obj 140 457 +~;
#X obj 194 456 +~;
#X obj 683 102 r~ env1;
#X obj 141 291 phasor~ 220;
#X msg 33 175 1000;
#X msg 73 176 220;
#X msg 107 176 30;
#X msg 138 177 5000;
#X obj 126 552 outlet~;
#X obj 211 553 outlet~;
#X obj 302 33 inlet;
#X obj 103 103 random 4;
#X obj 103 127 sel 0 1 2 3;
#X msg 386 151 0.25;
#X msg 247 151 44;
#X msg 285 150 0.3;
#X obj 278 89 random 6;
#X obj 278 113 sel 0 1 2 3 4 5;
#X msg 325 149 1.5;
#X msg 466 150 0.13;
#X msg 429 150 0.1;
#X text 807 457 44 \; 440 \; 6.05 \; 1.7;
#X obj 649 320 sketch2phasors;
#X obj 528 321 sketch2phasors;
#X obj 404 320 sketch2phasors;
#X obj 268 321 sketch2phasors;
#X floatatom 404 276 5 0 0 0 - - -;
#X connect 0 0 8 0;
#X connect 1 0 9 0;
#X connect 2 0 23 1;
#X connect 2 0 24 1;
#X connect 2 0 25 1;
#X connect 2 0 22 1;
#X connect 3 0 0 0;
#X connect 3 0 1 0;
#X connect 4 0 3 0;
#X connect 5 0 3 0;
#X connect 6 0 3 0;
#X connect 7 0 3 0;
#X connect 10 0 11 0;
#X connect 10 0 16 0;
#X connect 11 0 12 0;
#X connect 12 0 4 0;
#X connect 12 1 5 0;
#X connect 12 2 6 0;
#X connect 12 3 7 0;
#X connect 13 0 25 2;
#X connect 13 0 24 2;
#X connect 13 0 22 2;
#X connect 13 0 23 2;
#X connect 14 0 3 0;
#X connect 14 0 25 0;
#X connect 15 0 25 0;
#X connect 16 0 17 0;
#X connect 17 0 14 0;
#X connect 17 1 15 0;
#X connect 17 2 18 0;
#X connect 17 3 13 0;
#X connect 17 4 20 0;
#X connect 17 5 19 0;
#X connect 18 0 25 0;
#X connect 19 0 25 2;
#X connect 19 0 22 2;
#X connect 19 0 23 2;
#X connect 19 0 24 2;
#X connect 20 0 25 2;
#X connect 20 0 22 2;
#X connect 20 0 23 2;
#X connect 20 0 24 2;
#X connect 22 0 23 3;
#X connect 23 0 24 3;
#X connect 24 0 25 3;
#X connect 24 0 1 1;
#X connect 25 0 0 1;
#X connect 26 0 24 0;
#X restore 59 64 pd phasors;
#X obj 59 29 r trig;
#N canvas 0 23 855 704 rev 0;
#X obj 393 211 freeverb~;
#X obj 390 246 hip~ 100;
#X obj 462 248 hip~ 100;
#X obj 419 107 inlet~;
#X obj 503 107 inlet~;
#X obj 113 60 loadbang;
#X obj 396 311 outlet~;
#X obj 479 310 outlet~;
#X msg 50 111 wet 0.2 \, dry 0 \, damping 0.2 \, roomsize 0.99;
#X connect 0 0 1 0;
#X connect 0 0 2 0;
#X connect 1 0 6 0;
#X connect 2 0 7 0;
#X connect 3 0 0 0;
#X connect 4 0 0 1;
#X connect 5 0 8 0;
#X connect 8 0 0 0;
#X restore 78 505 pd rev;
#X floatatom 195 367 5 0 0 0 - - -;
#X obj 61 474 +~;
#X obj 135 473 +~;
#N canvas 761 247 883 720 delay 1;
#X obj 57 274 delwrite~ delL 500;
#X obj 372 231 delwrite~ delR 500;
#X obj 87 215 delread4~ delL;
#X obj 372 170 delread4~ delR;
#X obj 381 81 sig~;
#X obj 86 243 *~ 0.5;
#X obj 372 196 *~ 0.5;
#X obj 98 35 inlet~;
#X obj 213 39 inlet~;
#X obj 93 609 outlet~;
#X obj 343 619 outlet~;
#X obj 381 43 inlet;
#X obj 156 374 hip~;
#X obj 290 374 hip~;
#X floatatom 204 308 5 0 0 0 - - -;
#X obj 572 40 inlet;
#X obj 572 64 / 127;
#X obj 572 94 *;
#X floatatom 572 118 5 0 0.99 0 - - -;
#X obj 445 59 osc~ 0.1;
#X obj 381 125 +~;
#X obj 445 83 *~ 20;
#X obj 164 465 lop~;
#X floatatom 218 428 5 0 0 0 - - -;
#X obj 289 467 lop~;
#X obj 109 135 +~;
#X obj 135 72 osc~ 0.07;
#X obj 123 561 tanh~;
#X obj 298 587 tanh~;
#X obj 291 519 *~;
#X obj 164 523 *~;
#X obj 475 277 vsl 15 128 0 127 0 0 empty empty empty 0 -9 0 10 -262144
-1 -1 2500 1;
#X obj 476 413 / 127;
#X obj 475 469 + 1;
#X obj 135 96 *~ 7;
#X obj 476 437 * 10;
#X connect 2 0 5 0;
#X connect 3 0 6 0;
#X connect 4 0 20 0;
#X connect 4 0 25 0;
#X connect 5 0 0 0;
#X connect 5 0 12 0;
#X connect 6 0 1 0;
#X connect 6 0 13 0;
#X connect 7 0 0 0;
#X connect 8 0 1 0;
#X connect 11 0 4 0;
#X connect 12 0 22 0;
#X connect 13 0 24 0;
#X connect 14 0 12 1;
#X connect 14 0 13 1;
#X connect 15 0 16 0;
#X connect 16 0 17 0;
#X connect 16 0 17 1;
#X connect 17 0 18 0;
#X connect 18 0 6 1;
#X connect 18 0 5 1;
#X connect 19 0 21 0;
#X connect 20 0 3 0;
#X connect 21 0 20 1;
#X connect 22 0 30 0;
#X connect 23 0 22 1;
#X connect 23 0 24 1;
#X connect 24 0 29 0;
#X connect 25 0 2 0;
#X connect 26 0 34 0;
#X connect 27 0 9 0;
#X connect 28 0 10 0;
#X connect 29 0 28 0;
#X connect 30 0 27 0;
#X connect 31 0 32 0;
#X connect 32 0 35 0;
#X connect 33 0 29 1;
#X connect 33 0 30 1;
#X connect 34 0 25 1;
#X connect 35 0 33 0;
#X restore 83 426 pd delay;
#X obj 161 169 vline~;
#X obj 161 112 r trig;
#X msg 161 139 1 \, 0.8 40 0 \, 0 440 40;
#X obj 598 433 print;
#X obj 563 122 +;
#X floatatom 563 146 5 0 0 0 - - -;
#X obj 526 229 random 500;
#X floatatom 452 322 5 0 0 0 - - -;
#X obj 214 507 hsl 128 15 0 127 0 0 empty empty empty -2 -8 0 10 -262144
-1 -1 5700 1;
#X obj 245 346 vsl 15 60 0 127 0 0 empty empty empty 0 -9 0 10 -262144
-1 -1 5900 1;
#X obj 685 30 osc-rcv;
#X connect 0 0 3 0;
#X connect 2 0 3 1;
#X connect 3 0 22 0;
#X connect 3 0 24 0;
#X connect 3 1 23 0;
#X connect 3 1 24 1;
#X connect 4 0 3 2;
#X connect 5 0 6 0;
#X connect 7 0 2 0;
#X connect 8 0 0 0;
#X connect 9 0 4 0;
#X connect 10 0 9 0;
#X connect 11 0 12 0;
#X connect 11 0 17 0;
#X connect 11 0 31 0;
#X connect 12 0 14 0;
#X connect 12 0 32 0;
#X connect 13 0 11 0;
#X connect 14 0 5 0;
#X connect 14 0 16 0;
#X connect 15 0 16 1;
#X connect 15 0 29 1;
#X connect 16 0 5 0;
#X connect 16 0 28 0;
#X connect 18 0 8 0;
#X connect 18 1 7 0;
#X connect 19 0 18 0;
#X connect 20 0 1 0;
#X connect 20 1 1 1;
#X connect 21 0 24 2;
#X connect 22 0 20 0;
#X connect 22 0 1 0;
#X connect 23 0 20 1;
#X connect 23 0 1 1;
#X connect 24 0 22 1;
#X connect 24 1 23 1;
#X connect 25 0 8 1;
#X connect 25 0 7 1;
#X connect 26 0 27 0;
#X connect 27 0 25 0;
#X connect 29 0 30 0;
#X connect 30 0 11 1;
#X connect 30 0 31 1;
#X connect 31 0 29 0;
#X connect 33 0 1 2;
#X connect 34 0 24 3;
