#N canvas 275 39 1110 953 12;
#X msg 456 83 s theatre;
#X msg 474 112 s clockwork;
#X msg 491 142 s lightning;
#N canvas 379 689 615 240 loadFile 0;
#X obj 374 82 array define grainArrayL;
#X obj 374 105 array define grainArrayR;
#X obj 31 115 soundfiler;
#X floatatom 31 141 15 0 0 0 - - -;
#X text 142 142 duration in samples;
#X msg 30 78 read -resize \$1.wav grainArrayL grainArrayR;
#X obj 31 39 inlet;
#X obj 30 182 s fileDuration;
#X connect 2 0 3 0;
#X connect 3 0 7 0;
#X connect 5 0 2 0;
#X connect 6 0 5 0;
#X restore 454 318 pd loadFile;
#X obj 624 41 osc-rcv;
#N canvas 0 23 734 496 prototypes 0;
#X obj 121 418 master-ctrl;
#X msg 42 34 play;
#X msg 58 62 stop;
#N canvas 7 260 728 739 simplePlayer 0;
#X obj 29 383 line~;
#X text 98 313 start (samples) \; end (samples) \; time (ms);
#X obj 103 144 expr $f1 / 44.1;
#X obj 56 244 pak f f;
#X msg 30 327 0 \, \$1 \$2;
#X msg 243 351 0 \, 0 0;
#X obj 29 425 tabread4~ grainArrayL;
#X obj 188 425 tabread4~ grainArrayR;
#X obj 31 284 list;
#X text 115 171 convert samples \; to time in ms;
#X text 73 271 store list \; for later;
#X obj 31 30 inlet;
#X obj 31 58 route play;
#X obj 29 468 outlet~;
#X obj 188 467 outlet~;
#X text 303 351 stop playback;
#X obj 244 62 route stop;
#X obj 57 102 r fileDuration;
#X connect 0 0 6 0;
#X connect 0 0 7 0;
#X connect 2 0 3 1;
#X connect 3 0 8 1;
#X connect 4 0 0 0;
#X connect 5 0 0 0;
#X connect 6 0 13 0;
#X connect 7 0 14 0;
#X connect 8 0 4 0;
#X connect 11 0 12 0;
#X connect 12 0 8 0;
#X connect 12 1 16 0;
#X connect 16 0 5 0;
#X connect 17 0 3 0;
#X connect 17 0 2 0;
#X restore 43 91 pd simplePlayer;
#N canvas 121 23 989 1005 grainSkipper 0;
#X obj 127 763 line~;
#X text 207 691 start (samples) \; end (samples) \; time (ms);
#X obj 127 805 tabread4~ grainArrayL;
#X obj 286 806 tabread4~ grainArrayR;
#X obj 127 1067 outlet~;
#X obj 285 1067 outlet~;
#X floatatom 127 488 15 0 0 0 - - -;
#X text 239 490 start points in samples;
#X obj 127 511 t f f;
#X floatatom 219 582 10 0 0 0 - - -;
#X text 297 580 grain duration ms;
#X obj 129 646 pack f f f;
#X obj 162 607 +;
#X obj 219 609 * 44.1;
#X msg 128 707 \$1 \, \$2 \$3;
#X obj 133 267 metro;
#X floatatom 165 220 5 0 0 0 - - -;
#X floatatom 262 417 15 0 0 0 - - -;
#X obj 124 385 random 500;
#X obj 128 429 +;
#X obj 48 126 tgl 15 0 empty empty empty 17 7 0 10 -262144 -1 -1 0
1;
#X floatatom 198 273 5 0 0 0 - - -;
#X obj 256 91 / 127;
#X obj 256 124 *;
#X obj 174 78 / 127;
#X obj 174 102 *;
#X obj 48 15 inlet;
#X obj 155 18 inlet;
#X obj 317 17 inlet;
#X text 199 17 skip speed;
#X text 363 18 skip length;
#X obj 50 57 route play;
#X msg 50 89 1;
#X msg 109 90 0;
#X obj 129 1028 freeverb~;
#X msg 291 992 wet 0 \, dry 1;
#X obj 483 21 inlet;
#X text 534 23 pos in samples;
#X obj 297 898 loadbang;
#X obj 218 550 loadmess 600;
#X obj 350 374 loadmess 20000;
#X obj 572 344 t b b;
#X msg 631 386 1;
#X msg 571 427 0;
#X obj 572 797 line~;
#X obj 127 870 *~;
#X obj 286 871 *~;
#X obj 570 516 pack f 25;
#X obj 571 387 del 25;
#X floatatom 722 297 5 0 0 0 - - -;
#X text 769 298 fade time ms;
#X obj 639 605 print;
#X obj 644 343 - 25;
#X obj 263 202 loadmess 2500;
#X obj 185 185 loadmess 300;
#X obj 256 148 * 10000;
#X obj 174 126 * 1000;
#X msg 295 927 wet 0.3 \, dry 0.6 \, roomsize 0.95 \, damping 0.1;
#X msg 722 267 loadmess 25;
#X msg 293 958 wet 0.2 \, dry 0.7 \, roomsize 0.95 \, damping 0.1;
#X connect 0 0 2 0;
#X connect 0 0 3 0;
#X connect 2 0 45 0;
#X connect 3 0 46 0;
#X connect 6 0 8 0;
#X connect 8 0 11 0;
#X connect 8 1 12 0;
#X connect 9 0 13 0;
#X connect 9 0 11 2;
#X connect 11 0 14 0;
#X connect 12 0 11 1;
#X connect 13 0 12 1;
#X connect 14 0 0 0;
#X connect 15 0 18 0;
#X connect 15 0 41 0;
#X connect 16 0 15 1;
#X connect 16 0 52 0;
#X connect 17 0 19 1;
#X connect 18 0 19 0;
#X connect 19 0 17 0;
#X connect 19 0 6 0;
#X connect 20 0 15 0;
#X connect 21 0 18 1;
#X connect 22 0 23 0;
#X connect 22 0 23 1;
#X connect 23 0 55 0;
#X connect 24 0 25 0;
#X connect 24 0 25 1;
#X connect 25 0 56 0;
#X connect 26 0 31 0;
#X connect 27 0 24 0;
#X connect 28 0 22 0;
#X connect 31 0 32 0;
#X connect 31 1 33 0;
#X connect 32 0 20 0;
#X connect 33 0 20 0;
#X connect 34 0 4 0;
#X connect 34 1 5 0;
#X connect 35 0 34 0;
#X connect 36 0 17 0;
#X connect 38 0 57 0;
#X connect 39 0 9 0;
#X connect 40 0 17 0;
#X connect 41 0 48 0;
#X connect 41 1 42 0;
#X connect 42 0 47 0;
#X connect 43 0 47 0;
#X connect 44 0 46 1;
#X connect 44 0 45 1;
#X connect 45 0 34 0;
#X connect 46 0 34 1;
#X connect 47 0 44 0;
#X connect 47 0 51 0;
#X connect 48 0 43 0;
#X connect 49 0 47 1;
#X connect 49 0 52 1;
#X connect 52 0 48 1;
#X connect 53 0 21 0;
#X connect 54 0 16 0;
#X connect 55 0 21 0;
#X connect 56 0 16 0;
#X connect 57 0 34 0;
#X connect 58 0 49 0;
#X connect 59 0 34 0;
#X restore 437 92 pd grainSkipper;
#X f 24;
#X msg 437 40 play;
#X msg 449 66 stop;
#X obj 495 50 r k1;
#X obj 547 53 r k2;
#X floatatom 600 54 10 0 0 0 - - -;
#X text 167 37 simply play \; the audio file;
#X obj 600 16 bng 15 250 50 0 empty empty empty 17 7 0 10 -262144 -1
-1;
#X connect 1 0 3 0;
#X connect 2 0 3 0;
#X connect 3 0 0 0;
#X connect 3 1 0 1;
#X connect 4 0 0 0;
#X connect 4 1 0 1;
#X connect 5 0 4 0;
#X connect 6 0 4 0;
#X connect 7 0 4 1;
#X connect 8 0 4 2;
#X connect 9 0 4 3;
#X connect 11 0 9 0;
#X restore 626 74 pd prototypes;
#X text 454 42 file loader;
#X msg 505 174 s arcade;
#X msg 521 204 s floyd;
#X msg 531 235 s blues;
#X msg 541 264 s glidee;
#N canvas 652 72 981 956 granulator 1;
#X obj 166 31 inlet;
#X obj 31 30 inlet;
#X text 77 31 play/stop;
#X text 213 32 scale playback speed;
#X obj 374 32 inlet;
#X text 418 32 grain rate;
#X obj 503 32 inlet;
#X text 546 31 jitter;
#X obj 604 31 inlet;
#X text 646 32 grain duration;
#X obj 488 830 clone grain 16;
#X obj 488 859 *~ 0.5;
#X obj 583 859 *~ 0.5;
#X msg 488 798 next \$1;
#X text 551 800 target next voice;
#X obj 208 356 phasor~;
#X obj 208 491 *~;
#X text 235 491 0-duration of file;
#X obj 226 433 r fileDuration;
#X floatatom 226 457 15 0 0 0 - - -;
#X obj 488 682 snapshot~;
#X obj 523 264 tgl 15 0 empty empty empty 17 7 0 10 -262144 -1 -1 1
1;
#X obj 523 321 metro 125;
#X floatatom 488 713 15 0 0 0 - - -;
#X text 557 682 get a new grain position;
#X floatatom 24 259 15 0 0 0 - - -;
#X obj 508 743 / 44100;
#X floatatom 508 767 10 0 0 0 - - -;
#X text 597 713 position in samples;
#X text 584 765 position in seconds;
#X floatatom 583 297 5 0 0 0 - - -;
#X msg 219 328 0;
#X obj 226 386 snapshot~;
#X floatatom 226 410 5 0 0 0 - - -;
#X obj 267 357 metro 50;
#X obj 267 333 tgl 15 0 empty empty empty 17 7 0 10 -262144 -1 -1 0
1;
#X obj 47 235 bng 15 250 50 0 empty empty empty 17 7 0 10 -262144 -1
-1;
#X obj 24 181 r fileDuration;
#X obj 24 205 expr 44100 / $f1;
#X text 20 141 get correct playback \; speed for file;
#X obj 161 304 * 1;
#X floatatom 191 230 5 0 0 0 - - -;
#X text 231 231 scale playback speed;
#X obj 191 253 t b f;
#X text 267 410 current playback position;
#X obj 698 441 + 50;
#X obj 523 384 random 10;
#X floatatom 723 411 5 0 0 0 - - -;
#X floatatom 583 356 5 0 0 0 - - -;
#X text 626 355 jitter;
#X text 766 411 grain rate;
#X text 543 262 play;
#X obj 603 127 s grainDur;
#X floatatom 603 97 5 0 0 0 - - -;
#X obj 488 883 outlet~;
#X obj 583 883 outlet~;
#X obj 329 772 bng 15 250 50 0 empty empty empty 17 7 0 10 -262144
-1 -1;
#X obj 328 812 s grainRandPanTrig;
#X obj 788 111 s grainRandPanToggle;
#X obj 788 30 inlet;
#X obj 817 73 loadmess 0;
#X connect 0 0 41 0;
#X connect 1 0 21 0;
#X connect 4 0 47 0;
#X connect 6 0 48 0;
#X connect 8 0 53 0;
#X connect 10 0 11 0;
#X connect 10 1 12 0;
#X connect 11 0 54 0;
#X connect 12 0 55 0;
#X connect 13 0 10 0;
#X connect 15 0 16 0;
#X connect 15 0 32 0;
#X connect 16 0 20 0;
#X connect 18 0 19 0;
#X connect 19 0 16 1;
#X connect 20 0 23 0;
#X connect 21 0 22 0;
#X connect 22 0 20 0;
#X connect 22 0 46 0;
#X connect 23 0 13 0;
#X connect 23 0 26 0;
#X connect 23 0 56 0;
#X connect 25 0 40 0;
#X connect 26 0 27 0;
#X connect 30 0 22 1;
#X connect 31 0 15 0;
#X connect 32 0 33 0;
#X connect 34 0 32 0;
#X connect 35 0 34 0;
#X connect 36 0 25 0;
#X connect 37 0 38 0;
#X connect 38 0 25 0;
#X connect 40 0 15 0;
#X connect 41 0 43 0;
#X connect 43 0 40 0;
#X connect 43 1 40 1;
#X connect 45 0 30 0;
#X connect 46 0 45 0;
#X connect 47 0 45 1;
#X connect 48 0 46 1;
#X connect 53 0 52 0;
#X connect 56 0 57 0;
#X connect 59 0 58 0;
#X connect 60 0 58 0;
#X restore 62 343 pd granulator;
#X obj 78 874 master-ctrl;
#X obj 60 189 tgl 15 0 empty empty play/stop 17 7 0 10 -262144 -1 -1
1 1;
#X floatatom 108 242 5 0 0 1 grain-rate grain-rate -;
#X floatatom 127 267 5 0 0 1 jitter jitter -;
#X floatatom 149 299 5 0 0 1 grain-duration grain-duration -;
#X obj 168 68 *~ 1000;
#X obj 168 111 snapshot~;
#X obj 247 64 tgl 15 0 empty empty empty 17 7 0 10 -262144 -1 -1 1
1;
#X obj 75 778 freeverb~;
#X msg 191 742 wet 0.1 \, dry 0.7 \, damping 0 \, roomsize 0.99;
#X floatatom 155 463 5 0 0 1 delay1-time delay1-time -;
#X obj 185 502 hsl 128 15 0 1 0 0 empty delay1-feedback delay1-feedback
-2 -8 0 10 -262144 -1 -1 7660 1;
#X floatatom 159 541 5 0 0 1 delay2-time delay2-time -;
#X obj 189 582 hsl 128 15 0 1 0 0 empty delay2-feedback delay2-feedback
-2 -8 0 10 -262144 -1 -1 10160 1;
#N canvas 893 110 646 517 delay2 0;
#X floatatom 317 112 5 0 0 0 - - -;
#X obj 92 358 *~ 0.5;
#X obj 352 338 *~ 0.5;
#X obj 533 210 vsl 15 128 0 0.99 0 0 empty empty empty 0 -9 0 10 -262144
-1 -1 10263 1;
#X obj 70 40 inlet~;
#X obj 166 47 inlet~;
#X obj 308 46 inlet;
#X obj 457 50 inlet;
#X text 356 48 time;
#X obj 101 441 outlet~;
#X obj 341 445 outlet~;
#X text 511 52 feedback 0-127;
#X obj 88 303 delwrite~ dell2 500;
#X obj 354 282 delwrite~ delr2 500;
#X obj 93 334 delread4~ dell2;
#X obj 352 314 delread4~ delr2;
#X connect 0 0 14 0;
#X connect 0 0 15 0;
#X connect 1 0 9 0;
#X connect 1 0 12 0;
#X connect 2 0 10 0;
#X connect 2 0 13 0;
#X connect 3 0 2 1;
#X connect 3 0 1 1;
#X connect 4 0 12 0;
#X connect 5 0 13 0;
#X connect 6 0 0 0;
#X connect 7 0 3 0;
#X connect 14 0 1 0;
#X connect 15 0 2 0;
#X restore 68 613 pd delay2;
#N canvas 0 23 646 517 delay1 0;
#X obj 88 303 delwrite~ dell 500;
#X obj 354 282 delwrite~ delr 500;
#X obj 93 334 delread4~ dell;
#X obj 352 314 delread4~ delr;
#X floatatom 317 112 5 0 0 0 - - -;
#X obj 92 358 *~ 0.5;
#X obj 352 338 *~ 0.5;
#X obj 533 210 vsl 15 128 0 0.99 0 0 empty empty empty 0 -9 0 10 -262144
-1 -1 7677 1;
#X obj 70 40 inlet~;
#X obj 166 47 inlet~;
#X obj 308 46 inlet;
#X obj 457 50 inlet;
#X text 356 48 time;
#X obj 101 441 outlet~;
#X obj 341 445 outlet~;
#X text 511 52 feedback 0-127;
#X connect 2 0 5 0;
#X connect 3 0 6 0;
#X connect 4 0 2 0;
#X connect 4 0 3 0;
#X connect 5 0 0 0;
#X connect 5 0 13 0;
#X connect 6 0 1 0;
#X connect 6 0 14 0;
#X connect 7 0 6 1;
#X connect 7 0 5 1;
#X connect 8 0 0 0;
#X connect 9 0 1 0;
#X connect 10 0 4 0;
#X connect 11 0 7 0;
#X restore 69 533 pd delay1;
#X msg 765 375 \; scale-playback 200 \; grain-rate 444 \; jitter 65
\; grain-duration 89 \; delay1-time 83 \; delay1-feedback 0.8 \; delay2-time
315 \; delay2-feedback 0.8 \;;
#X obj 247 39 loadbang;
#X obj 193 703 loadbang;
#X obj 168 39 phasor~ 30;
#X obj 247 85 metro 0.1;
#X obj 182 328 tgl 15 0 empty empty random-grain-pan 17 7 0 10 -262144
-1 -1 1 1;
#X floatatom 223 188 5 0 0 1 scale-playback scale-playback -;
#X text 911 24 Todo in the Evernote doc;
#X connect 0 0 3 0;
#X connect 1 0 3 0;
#X connect 2 0 3 0;
#X connect 7 0 3 0;
#X connect 8 0 3 0;
#X connect 9 0 3 0;
#X connect 10 0 3 0;
#X connect 11 0 27 0;
#X connect 11 1 27 1;
#X connect 13 0 11 0;
#X connect 14 0 11 2;
#X connect 15 0 11 3;
#X connect 16 0 11 4;
#X connect 17 0 18 0;
#X connect 18 0 11 1;
#X connect 19 0 32 0;
#X connect 20 0 12 0;
#X connect 20 1 12 1;
#X connect 21 0 20 0;
#X connect 22 0 27 2;
#X connect 23 0 27 3;
#X connect 24 0 26 2;
#X connect 25 0 26 3;
#X connect 26 0 20 0;
#X connect 26 1 20 1;
#X connect 27 0 26 0;
#X connect 27 1 26 1;
#X connect 29 0 19 0;
#X connect 30 0 21 0;
#X connect 31 0 17 0;
#X connect 32 0 18 0;
#X connect 33 0 11 5;
#X connect 34 0 11 1;
