#N canvas 189 284 900 685 12;
#X obj 183 479 outlet~;
#X obj 317 484 outlet~;
#X obj 40 82 s tuneOsc;
#X floatatom 47 36 5 0 0 0 - - -;
#X obj 520 269 expr~ 1 - \$1;
#X obj 624 269 expr~ 1 - \$1;
#X obj 522 141 loadbang;
#X obj 615 134 loadbang;
#X obj 615 158 random 1000;
#X obj 615 182 / 1000;
#X obj 522 212 osc~;
#X obj 615 206 osc~;
#X obj 468 117 bng 15 250 50 0 empty empty empty 17 7 0 10 -262144
-1 -1;
#X obj 522 165 random 100;
#X obj 522 189 / 100;
#X obj 192 366 *~;
#X obj 318 361 *~;
#X obj 288 298 *~;
#X obj 230 289 *~;
#X obj 209 127 clone stereo-osc.cl 8;
#X obj 190 415 *~ 0.05;
#X obj 318 417 *~ 0.05;
#X obj 127 83 s resetOsc;
#X obj 134 46 bng 15 250 50 0 empty empty empty 17 7 0 10 -262144 -1
-1;
#X connect 3 0 2 0;
#X connect 4 0 15 1;
#X connect 5 0 16 1;
#X connect 6 0 13 0;
#X connect 7 0 8 0;
#X connect 8 0 9 0;
#X connect 9 0 11 0;
#X connect 10 0 4 0;
#X connect 10 0 18 1;
#X connect 11 0 5 0;
#X connect 11 0 17 1;
#X connect 12 0 8 0;
#X connect 12 0 13 0;
#X connect 13 0 14 0;
#X connect 14 0 10 0;
#X connect 15 0 20 0;
#X connect 16 0 21 0;
#X connect 17 0 15 0;
#X connect 18 0 16 0;
#X connect 19 0 15 0;
#X connect 19 0 18 0;
#X connect 19 1 17 0;
#X connect 19 1 16 0;
#X connect 20 0 0 0;
#X connect 21 0 1 0;
#X connect 23 0 22 0;
