#N canvas 661 251 569 416 12;
#X obj 76 54 oscillator;
#X obj 184 52 oscillator;
#X obj 85 322 outlet~;
#X obj 174 320 outlet~;
#X obj 331 178 expr~ 1 - \$1;
#X obj 435 178 expr~ 1 - \$1;
#X obj 333 50 loadbang;
#X obj 333 74 random 1000;
#X obj 333 97 / 1000;
#X obj 426 43 loadbang;
#X obj 426 67 random 1000;
#X obj 426 91 / 1000;
#X obj 333 121 osc~;
#X obj 426 115 osc~;
#X obj 85 220 *~;
#X obj 186 219 *~;
#X obj 279 26 bng 15 250 50 0 empty empty empty 17 7 0 10 -262144 -1
-1;
#X obj 186 243 *~ 0.2;
#X obj 85 244 *~ 0.2;
#X connect 0 0 14 0;
#X connect 1 0 15 0;
#X connect 4 0 15 1;
#X connect 5 0 15 1;
#X connect 6 0 7 0;
#X connect 7 0 8 0;
#X connect 8 0 12 0;
#X connect 9 0 10 0;
#X connect 10 0 11 0;
#X connect 11 0 13 0;
#X connect 12 0 4 0;
#X connect 12 0 14 1;
#X connect 13 0 5 0;
#X connect 13 0 14 1;
#X connect 14 0 18 0;
#X connect 15 0 17 0;
#X connect 16 0 7 0;
#X connect 16 0 10 0;
#X connect 17 0 3 0;
#X connect 18 0 2 0;
