#N canvas 497 208 716 745 12;
#X obj 28 44 oscparse;
#X obj 28 68 list trim;
#X obj 28 19 netreceive -u -b 6031;
#X obj 28 138 route alias8;
#X obj 97 238 cnv 15 590 180 empty empty empty 20 12 0 14 -233017 -66577
0;
#X floatatom 113 364 5 0 0 0 - - -;
#X floatatom 184 364 5 0 0 0 - - -;
#X floatatom 252 365 5 0 0 0 - - -;
#X floatatom 323 365 5 0 0 0 - - -;
#X floatatom 398 364 5 0 0 0 - - -;
#X floatatom 469 364 5 0 0 0 - - -;
#X floatatom 537 365 5 0 0 0 - - -;
#X floatatom 608 365 5 0 0 0 - - -;
#X floatatom 113 279 5 0 0 0 - - -;
#X floatatom 184 279 5 0 0 0 - - -;
#X floatatom 252 280 5 0 0 0 - - -;
#X floatatom 323 280 5 0 0 0 - - -;
#X floatatom 398 279 5 0 0 0 - - -;
#X floatatom 469 279 5 0 0 0 - - -;
#X floatatom 537 280 5 0 0 0 - - -;
#X floatatom 608 280 5 0 0 0 - - -;
#X obj 113 254 route 1;
#X obj 184 254 route 2;
#X obj 252 255 route 3;
#X obj 323 255 route 4;
#X obj 398 254 route 5;
#X obj 469 254 route 6;
#X obj 537 255 route 7;
#X obj 607 255 route 8;
#X obj 113 339 route 9;
#X obj 184 339 route 10;
#X obj 253 340 route 11;
#X obj 323 340 route 12;
#X obj 398 339 route 13;
#X obj 469 339 route 14;
#X obj 537 340 route 15;
#X obj 608 340 route 16;
#X obj 113 303 send k1;
#X obj 184 303 send k2;
#X obj 252 304 send k3;
#X obj 323 304 send k4;
#X obj 398 303 send k5;
#X obj 469 303 send k6;
#X obj 537 304 send k7;
#X obj 608 304 send k8;
#X obj 113 388 send k9;
#X obj 184 388 send k10;
#X obj 252 389 send k11;
#X obj 323 389 send k12;
#X obj 398 388 send k13;
#X obj 469 388 send k14;
#X obj 537 389 send k15;
#X obj 608 389 send k16;
#X obj 97 429 cnv 15 590 100 empty empty empty 20 12 0 14 -233017 -66577
0;
#X floatatom 110 471 5 0 0 0 - - -;
#X floatatom 181 471 5 0 0 0 - - -;
#X floatatom 249 472 5 0 0 0 - - -;
#X floatatom 320 472 5 0 0 0 - - -;
#X obj 181 495 send s2;
#X obj 110 495 send s1;
#X obj 249 496 send s3;
#X obj 320 496 send s4;
#X floatatom 395 471 5 0 0 0 - - -;
#X floatatom 466 471 5 0 0 0 - - -;
#X floatatom 534 472 5 0 0 0 - - -;
#X floatatom 605 472 5 0 0 0 - - -;
#X obj 395 495 send s5;
#X obj 466 495 send s6;
#X obj 534 496 send s7;
#X obj 605 496 send s8;
#X obj 596 57 cnv 15 90 100 empty empty empty 20 12 0 14 -233017 -66577
0;
#X floatatom 611 98 5 0 0 0 - - -;
#X obj 97 540 cnv 15 590 180 empty empty empty 20 12 0 14 -233017 -66577
0;
#X floatatom 113 666 5 0 0 0 - - -;
#X floatatom 184 666 5 0 0 0 - - -;
#X floatatom 252 667 5 0 0 0 - - -;
#X floatatom 323 667 5 0 0 0 - - -;
#X floatatom 398 666 5 0 0 0 - - -;
#X floatatom 469 666 5 0 0 0 - - -;
#X floatatom 537 667 5 0 0 0 - - -;
#X floatatom 608 667 5 0 0 0 - - -;
#X floatatom 113 581 5 0 0 0 - - -;
#X floatatom 184 581 5 0 0 0 - - -;
#X floatatom 252 582 5 0 0 0 - - -;
#X floatatom 323 582 5 0 0 0 - - -;
#X floatatom 398 581 5 0 0 0 - - -;
#X floatatom 469 581 5 0 0 0 - - -;
#X floatatom 537 582 5 0 0 0 - - -;
#X floatatom 608 582 5 0 0 0 - - -;
#X obj 113 556 route 1;
#X obj 184 556 route 2;
#X obj 252 557 route 3;
#X obj 323 557 route 4;
#X obj 398 556 route 5;
#X obj 469 556 route 6;
#X obj 537 557 route 7;
#X obj 607 557 route 8;
#X obj 113 641 route 9;
#X obj 184 641 route 10;
#X obj 253 642 route 11;
#X obj 323 642 route 12;
#X obj 398 641 route 13;
#X obj 469 641 route 14;
#X obj 537 642 route 15;
#X obj 608 642 route 16;
#X obj 611 122 send m;
#X obj 110 446 route 1;
#X obj 181 446 route 2;
#X obj 249 447 route 3;
#X obj 320 447 route 4;
#X obj 395 446 route 5;
#X obj 466 446 route 6;
#X obj 534 447 route 7;
#X obj 605 447 route 8;
#X obj 206 48 route knob;
#X obj 290 47 route slider;
#X obj 388 47 route pad;
#X obj 466 47 route master;
#X obj 611 73 route 1;
#X obj 113 605 send p1;
#X obj 184 605 send p2;
#X obj 252 606 send p3;
#X obj 323 606 send p4;
#X obj 398 605 send p5;
#X obj 469 605 send p6;
#X obj 538 606 send p7;
#X obj 608 606 send p8;
#X obj 113 690 send p9;
#X obj 184 690 send p10;
#X obj 252 691 send p11;
#X obj 324 691 send p12;
#X obj 398 690 send p13;
#X obj 469 690 send p14;
#X obj 537 691 send p15;
#X obj 608 691 send p16;
#X obj 28 162 route 1;
#X obj 206 75 s knobs;
#X obj 28 187 s cntrls;
#X obj 206 21 r cntrls;
#X obj 290 74 s sliders;
#X obj 388 74 s pads;
#X obj 466 74 s master;
#X obj 611 31 r master;
#X obj 28 226 r knobs;
#X obj 26 412 r sliders;
#X obj 30 520 r pads;
#X obj 137 139 route GPIO;
#X obj 137 187 s GPIO;
#X obj 231 139 route Arduino;
#X obj 231 188 s Arduino;
#X connect 0 0 1 0;
#X connect 1 0 3 0;
#X connect 1 0 146 0;
#X connect 1 0 148 0;
#X connect 2 0 0 0;
#X connect 3 0 135 0;
#X connect 5 0 45 0;
#X connect 6 0 46 0;
#X connect 7 0 47 0;
#X connect 8 0 48 0;
#X connect 9 0 49 0;
#X connect 10 0 50 0;
#X connect 11 0 51 0;
#X connect 12 0 52 0;
#X connect 13 0 37 0;
#X connect 14 0 38 0;
#X connect 15 0 39 0;
#X connect 16 0 40 0;
#X connect 17 0 41 0;
#X connect 18 0 42 0;
#X connect 19 0 43 0;
#X connect 20 0 44 0;
#X connect 21 0 13 0;
#X connect 21 1 22 0;
#X connect 22 0 14 0;
#X connect 22 1 23 0;
#X connect 23 0 15 0;
#X connect 23 1 24 0;
#X connect 24 0 16 0;
#X connect 24 1 25 0;
#X connect 25 0 17 0;
#X connect 25 1 26 0;
#X connect 26 0 18 0;
#X connect 26 1 27 0;
#X connect 27 0 19 0;
#X connect 27 1 28 0;
#X connect 28 0 20 0;
#X connect 29 0 5 0;
#X connect 29 1 30 0;
#X connect 30 0 6 0;
#X connect 30 1 31 0;
#X connect 31 0 7 0;
#X connect 31 1 32 0;
#X connect 32 0 8 0;
#X connect 32 1 33 0;
#X connect 33 0 9 0;
#X connect 33 1 34 0;
#X connect 34 0 10 0;
#X connect 34 1 35 0;
#X connect 35 0 11 0;
#X connect 35 1 36 0;
#X connect 36 0 12 0;
#X connect 54 0 59 0;
#X connect 55 0 58 0;
#X connect 56 0 60 0;
#X connect 57 0 61 0;
#X connect 62 0 66 0;
#X connect 63 0 67 0;
#X connect 64 0 68 0;
#X connect 65 0 69 0;
#X connect 71 0 105 0;
#X connect 73 0 127 0;
#X connect 74 0 128 0;
#X connect 75 0 129 0;
#X connect 76 0 130 0;
#X connect 77 0 131 0;
#X connect 78 0 132 0;
#X connect 79 0 133 0;
#X connect 80 0 134 0;
#X connect 81 0 119 0;
#X connect 82 0 120 0;
#X connect 83 0 121 0;
#X connect 84 0 122 0;
#X connect 85 0 123 0;
#X connect 86 0 124 0;
#X connect 87 0 125 0;
#X connect 88 0 126 0;
#X connect 89 0 81 0;
#X connect 89 1 90 0;
#X connect 90 0 82 0;
#X connect 90 1 91 0;
#X connect 91 0 83 0;
#X connect 91 1 92 0;
#X connect 92 0 84 0;
#X connect 92 1 93 0;
#X connect 93 0 85 0;
#X connect 93 1 94 0;
#X connect 94 0 86 0;
#X connect 94 1 95 0;
#X connect 95 0 87 0;
#X connect 95 1 96 0;
#X connect 96 0 88 0;
#X connect 97 0 73 0;
#X connect 97 1 98 0;
#X connect 98 0 74 0;
#X connect 98 1 99 0;
#X connect 99 0 75 0;
#X connect 99 1 100 0;
#X connect 100 0 76 0;
#X connect 100 1 101 0;
#X connect 101 0 77 0;
#X connect 101 1 102 0;
#X connect 102 0 78 0;
#X connect 102 1 103 0;
#X connect 103 0 79 0;
#X connect 103 1 104 0;
#X connect 104 0 80 0;
#X connect 106 0 54 0;
#X connect 106 1 107 0;
#X connect 107 0 55 0;
#X connect 107 1 108 0;
#X connect 108 0 56 0;
#X connect 108 1 109 0;
#X connect 109 0 57 0;
#X connect 109 1 110 0;
#X connect 110 0 62 0;
#X connect 110 1 111 0;
#X connect 111 0 63 0;
#X connect 111 1 112 0;
#X connect 112 0 64 0;
#X connect 112 1 113 0;
#X connect 113 0 65 0;
#X connect 114 0 136 0;
#X connect 114 1 115 0;
#X connect 115 0 139 0;
#X connect 115 1 116 0;
#X connect 116 0 140 0;
#X connect 116 1 117 0;
#X connect 117 0 141 0;
#X connect 118 0 71 0;
#X connect 135 0 137 0;
#X connect 138 0 114 0;
#X connect 142 0 118 0;
#X connect 143 0 21 0;
#X connect 143 0 29 0;
#X connect 144 0 106 0;
#X connect 145 0 89 0;
#X connect 145 0 97 0;
#X connect 146 0 147 0;
#X connect 148 0 149 0;
