#N canvas 1112 970 1347 408 12;
#X obj 42 28 inlet~;
#X obj 110 27 r s1;
#X obj 109 254 vline~;
#X msg 109 226 \$1 5;
#X obj 109 53 / 127;
#X obj 42 285 *~, f 10;
#X obj 109 84 vsl 15 128 0 1 0 0 empty mixer_slider empty 0 -9 0 10
-262144 -1 -1 0 1;
#X obj 184 30 inlet~;
#X obj 251 256 vline~;
#X msg 251 228 \$1 5;
#X obj 251 55 / 127;
#X obj 184 287 *~, f 10;
#X obj 251 86 vsl 15 128 0 1 0 0 empty mixer_slider empty 0 -9 0 10
-262144 -1 -1 0 1;
#X obj 327 30 inlet~;
#X obj 394 256 vline~;
#X msg 394 228 \$1 5;
#X obj 394 55 / 127;
#X obj 327 287 *~, f 10;
#X obj 394 86 vsl 15 128 0 1 0 0 empty mixer_slider empty 0 -9 0 10
-262144 -1 -1 0 1;
#X obj 469 32 inlet~;
#X obj 536 258 vline~;
#X msg 536 230 \$1 5;
#X obj 536 57 / 127;
#X obj 469 289 *~, f 10;
#X obj 536 88 vsl 15 128 0 1 0 0 empty mixer_slider empty 0 -9 0 10
-262144 -1 -1 0 1;
#X obj 613 32 inlet~;
#X obj 680 258 vline~;
#X msg 680 230 \$1 5;
#X obj 680 57 / 127;
#X obj 613 289 *~, f 10;
#X obj 680 88 vsl 15 128 0 1 0 0 empty mixer_slider empty 0 -9 0 10
-262144 -1 -1 10200 1;
#X obj 755 34 inlet~;
#X obj 822 260 vline~;
#X msg 822 232 \$1 5;
#X obj 822 59 / 127;
#X obj 755 291 *~, f 10;
#X obj 822 90 vsl 15 128 0 1 0 0 empty mixer_slider empty 0 -9 0 10
-262144 -1 -1 7200 1;
#X obj 898 34 inlet~;
#X obj 965 260 vline~;
#X msg 965 232 \$1 5;
#X obj 965 59 / 127;
#X obj 898 291 *~, f 10;
#X obj 965 90 vsl 15 128 0 1 0 0 empty mixer_slider empty 0 -9 0 10
-262144 -1 -1 0 1;
#X obj 1040 36 inlet~;
#X obj 1107 262 vline~;
#X msg 1107 234 \$1 5;
#X obj 1107 61 / 127;
#X obj 1040 293 *~, f 10;
#X obj 1107 92 vsl 15 128 0 1 0 0 empty mixer_slider empty 0 -9 0 10
-262144 -1 -1 0 1;
#X obj 251 31 r s2;
#X obj 394 31 r s3;
#X obj 536 33 r s4;
#X obj 680 33 r s5;
#X obj 822 35 r s6;
#X obj 965 35 r s7;
#X obj 1107 37 r s8;
#X obj 1255 302 vline~;
#X msg 1255 274 \$1 5;
#X obj 1255 132 vsl 15 128 0 1 0 0 empty mixer_slider empty 0 -9 0
10 -262144 -1 -1 5400 1;
#X obj 1255 77 r m;
#X obj 1255 101 / 127;
#X obj 43 349 outlet~;
#X obj 43 314 *~;
#X obj 183 351 outlet~;
#X obj 183 316 *~;
#X obj 327 349 outlet~;
#X obj 327 314 *~;
#X obj 467 351 outlet~;
#X obj 467 316 *~;
#X obj 613 355 outlet~;
#X obj 613 320 *~;
#X obj 753 357 outlet~;
#X obj 753 322 *~;
#X obj 897 355 outlet~;
#X obj 897 320 *~;
#X obj 1037 357 outlet~;
#X obj 1037 322 *~;
#X connect 0 0 5 0;
#X connect 1 0 4 0;
#X connect 2 0 5 1;
#X connect 3 0 2 0;
#X connect 4 0 6 0;
#X connect 5 0 62 0;
#X connect 6 0 3 0;
#X connect 7 0 11 0;
#X connect 8 0 11 1;
#X connect 9 0 8 0;
#X connect 10 0 12 0;
#X connect 11 0 64 0;
#X connect 12 0 9 0;
#X connect 13 0 17 0;
#X connect 14 0 17 1;
#X connect 15 0 14 0;
#X connect 16 0 18 0;
#X connect 17 0 66 0;
#X connect 18 0 15 0;
#X connect 19 0 23 0;
#X connect 20 0 23 1;
#X connect 21 0 20 0;
#X connect 22 0 24 0;
#X connect 23 0 68 0;
#X connect 24 0 21 0;
#X connect 25 0 29 0;
#X connect 26 0 29 1;
#X connect 27 0 26 0;
#X connect 28 0 30 0;
#X connect 29 0 70 0;
#X connect 30 0 27 0;
#X connect 31 0 35 0;
#X connect 32 0 35 1;
#X connect 33 0 32 0;
#X connect 34 0 36 0;
#X connect 35 0 72 0;
#X connect 36 0 33 0;
#X connect 37 0 41 0;
#X connect 38 0 41 1;
#X connect 39 0 38 0;
#X connect 40 0 42 0;
#X connect 41 0 74 0;
#X connect 42 0 39 0;
#X connect 43 0 47 0;
#X connect 44 0 47 1;
#X connect 45 0 44 0;
#X connect 46 0 48 0;
#X connect 47 0 76 0;
#X connect 48 0 45 0;
#X connect 49 0 10 0;
#X connect 50 0 16 0;
#X connect 51 0 22 0;
#X connect 52 0 28 0;
#X connect 53 0 34 0;
#X connect 54 0 40 0;
#X connect 55 0 46 0;
#X connect 56 0 62 1;
#X connect 56 0 64 0;
#X connect 56 0 76 1;
#X connect 56 0 66 1;
#X connect 56 0 68 1;
#X connect 56 0 70 1;
#X connect 56 0 74 1;
#X connect 56 0 72 1;
#X connect 57 0 56 0;
#X connect 58 0 57 0;
#X connect 59 0 60 0;
#X connect 60 0 58 0;
#X connect 62 0 61 0;
#X connect 64 0 63 0;
#X connect 66 0 65 0;
#X connect 68 0 67 0;
#X connect 70 0 69 0;
#X connect 72 0 71 0;
#X connect 74 0 73 0;
#X connect 76 0 75 0;
