#N canvas 1074 563 1218 772 12;
#X obj 42 41 inlet~;
#X obj 109 16 r s1;
#X obj 109 267 vline~;
#X msg 109 239 \$1 5;
#X obj 109 66 / 127;
#X obj 42 298 *~, f 10;
#X obj 109 97 vsl 15 128 0 1 0 0 empty mixer_slider empty 0 -9 0 10
-262144 -1 -1 0 1;
#X obj 184 43 inlet~;
#X obj 251 269 vline~;
#X msg 251 241 \$1 5;
#X obj 251 68 / 127;
#X obj 184 300 *~, f 10;
#X obj 251 99 vsl 15 128 0 1 0 0 empty mixer_slider empty 0 -9 0 10
-262144 -1 -1 0 1;
#X obj 327 43 inlet~;
#X obj 394 269 vline~;
#X msg 394 241 \$1 5;
#X obj 394 68 / 127;
#X obj 327 300 *~, f 10;
#X obj 394 99 vsl 15 128 0 1 0 0 empty mixer_slider empty 0 -9 0 10
-262144 -1 -1 5200 1;
#X obj 469 45 inlet~;
#X obj 536 271 vline~;
#X msg 536 243 \$1 5;
#X obj 536 70 / 127;
#X obj 469 302 *~, f 10;
#X obj 536 101 vsl 15 128 0 1 0 0 empty mixer_slider empty 0 -9 0 10
-262144 -1 -1 4300 1;
#X obj 613 45 inlet~;
#X obj 680 271 vline~;
#X msg 680 243 \$1 5;
#X obj 680 70 / 127;
#X obj 613 302 *~, f 10;
#X obj 680 101 vsl 15 128 0 1 0 0 empty mixer_slider empty 0 -9 0 10
-262144 -1 -1 4600 1;
#X obj 755 47 inlet~;
#X obj 822 273 vline~;
#X msg 822 245 \$1 5;
#X obj 822 72 / 127;
#X obj 755 304 *~, f 10;
#X obj 822 103 vsl 15 128 0 1 0 0 empty mixer_slider empty 0 -9 0 10
-262144 -1 -1 5600 1;
#X obj 898 47 inlet~;
#X obj 965 273 vline~;
#X msg 965 245 \$1 5;
#X obj 965 72 / 127;
#X obj 898 304 *~, f 10;
#X obj 965 103 vsl 15 128 0 1 0 0 empty mixer_slider empty 0 -9 0 10
-262144 -1 -1 4200 1;
#X obj 1040 49 inlet~;
#X obj 1107 275 vline~;
#X msg 1107 247 \$1 5;
#X obj 1107 74 / 127;
#X obj 1040 306 *~, f 10;
#X obj 1107 105 vsl 15 128 0 1 0 0 empty mixer_slider empty 0 -9 0
10 -262144 -1 -1 6200 1;
#X obj 251 44 r s2;
#X obj 394 44 r s3;
#X obj 536 46 r s4;
#X obj 680 46 r s5;
#X obj 822 48 r s6;
#X obj 965 48 r s7;
#X obj 1107 50 r s8;
#X obj 1108 586 vline~;
#X msg 1108 558 \$1 5;
#X obj 1108 416 vsl 15 128 0 1 0 0 empty mixer_slider empty 0 -9 0
10 -262144 -1 -1 2500 1;
#X obj 1108 361 r m;
#X obj 1108 385 / 127;
#X obj 42 696 outlet~;
#X obj 42 661 *~;
#X obj 182 698 outlet~;
#X obj 182 663 *~;
#X obj 326 696 outlet~;
#X obj 326 661 *~;
#X obj 466 698 outlet~;
#X obj 466 663 *~;
#X obj 612 702 outlet~;
#X obj 612 667 *~;
#X obj 752 704 outlet~;
#X obj 752 669 *~;
#X obj 896 702 outlet~;
#X obj 896 667 *~;
#X obj 1036 704 outlet~;
#X obj 1036 669 *~;
#X connect 0 0 5 0;
#X connect 1 0 4 0;
#X connect 2 0 5 1;
#X connect 3 0 2 0;
#X connect 4 0 6 0;
#X connect 5 0 62 0;
#X connect 6 0 3 0;
#X connect 7 0 11 0;
#X connect 8 0 11 1;
#X connect 9 0 8 0;
#X connect 10 0 12 0;
#X connect 11 0 64 0;
#X connect 12 0 9 0;
#X connect 13 0 17 0;
#X connect 14 0 17 1;
#X connect 15 0 14 0;
#X connect 16 0 18 0;
#X connect 17 0 66 0;
#X connect 18 0 15 0;
#X connect 19 0 23 0;
#X connect 20 0 23 1;
#X connect 21 0 20 0;
#X connect 22 0 24 0;
#X connect 23 0 68 0;
#X connect 24 0 21 0;
#X connect 25 0 29 0;
#X connect 26 0 29 1;
#X connect 27 0 26 0;
#X connect 28 0 30 0;
#X connect 29 0 70 0;
#X connect 30 0 27 0;
#X connect 31 0 35 0;
#X connect 32 0 35 1;
#X connect 33 0 32 0;
#X connect 34 0 36 0;
#X connect 35 0 72 0;
#X connect 36 0 33 0;
#X connect 37 0 41 0;
#X connect 38 0 41 1;
#X connect 39 0 38 0;
#X connect 40 0 42 0;
#X connect 41 0 74 0;
#X connect 42 0 39 0;
#X connect 43 0 47 0;
#X connect 44 0 47 1;
#X connect 45 0 44 0;
#X connect 46 0 48 0;
#X connect 47 0 76 0;
#X connect 48 0 45 0;
#X connect 49 0 10 0;
#X connect 50 0 16 0;
#X connect 51 0 22 0;
#X connect 52 0 28 0;
#X connect 53 0 34 0;
#X connect 54 0 40 0;
#X connect 55 0 46 0;
#X connect 56 0 62 1;
#X connect 56 0 64 0;
#X connect 56 0 76 1;
#X connect 56 0 66 1;
#X connect 56 0 68 1;
#X connect 56 0 70 1;
#X connect 56 0 74 1;
#X connect 56 0 72 1;
#X connect 57 0 56 0;
#X connect 58 0 57 0;
#X connect 59 0 60 0;
#X connect 60 0 58 0;
#X connect 62 0 61 0;
#X connect 64 0 63 0;
#X connect 66 0 65 0;
#X connect 68 0 67 0;
#X connect 70 0 69 0;
#X connect 72 0 71 0;
#X connect 74 0 73 0;
#X connect 76 0 75 0;
