#N canvas 219 230 1343 752 12;
#X obj 39 58 inlet~;
#X obj 107 57 r s1;
#X obj 106 284 vline~;
#X msg 106 256 \$1 5;
#X obj 106 83 / 127;
#X obj 39 355 *~, f 10;
#X obj 106 114 vsl 15 128 0 1 0 0 empty mixer_slider empty 0 -9 0 10
-262144 -1 -1 12700 1;
#X obj 181 60 inlet~;
#X obj 248 286 vline~;
#X msg 248 258 \$1 5;
#X obj 248 85 / 127;
#X obj 181 357 *~, f 10;
#X obj 248 116 vsl 15 128 0 1 0 0 empty mixer_slider empty 0 -9 0 10
-262144 -1 -1 12700 1;
#X obj 324 60 inlet~;
#X obj 391 286 vline~;
#X msg 391 258 \$1 5;
#X obj 391 85 / 127;
#X obj 324 357 *~, f 10;
#X obj 391 116 vsl 15 128 0 1 0 0 empty mixer_slider empty 0 -9 0 10
-262144 -1 -1 11500 1;
#X obj 466 62 inlet~;
#X obj 533 288 vline~;
#X msg 533 260 \$1 5;
#X obj 533 87 / 127;
#X obj 466 359 *~, f 10;
#X obj 533 118 vsl 15 128 0 1 0 0 empty mixer_slider empty 0 -9 0 10
-262144 -1 -1 8300 1;
#X obj 610 62 inlet~;
#X obj 677 288 vline~;
#X msg 677 260 \$1 5;
#X obj 677 87 / 127;
#X obj 610 359 *~, f 10;
#X obj 677 118 vsl 15 128 0 1 0 0 empty mixer_slider empty 0 -9 0 10
-262144 -1 -1 7800 1;
#X obj 752 64 inlet~;
#X obj 819 290 vline~;
#X msg 819 262 \$1 5;
#X obj 819 89 / 127;
#X obj 752 361 *~, f 10;
#X obj 819 120 vsl 15 128 0 1 0 0 empty mixer_slider empty 0 -9 0 10
-262144 -1 -1 200 1;
#X obj 895 64 inlet~;
#X obj 962 290 vline~;
#X msg 962 262 \$1 5;
#X obj 962 89 / 127;
#X obj 895 361 *~, f 10;
#X obj 962 120 vsl 15 128 0 1 0 0 empty mixer_slider empty 0 -9 0 10
-262144 -1 -1 0 1;
#X obj 1037 66 inlet~;
#X obj 1104 292 vline~;
#X msg 1104 264 \$1 5;
#X obj 1104 91 / 127;
#X obj 1037 363 *~, f 10;
#X obj 1104 122 vsl 15 128 0 1 0 0 empty mixer_slider empty 0 -9 0
10 -262144 -1 -1 0 1;
#X obj 248 61 r s2;
#X obj 391 61 r s3;
#X obj 533 63 r s4;
#X obj 677 63 r s5;
#X obj 819 65 r s6;
#X obj 962 65 r s7;
#X obj 1104 67 r s8;
#X obj 1231 566 vline~;
#X msg 1231 538 \$1 5;
#X obj 1231 396 vsl 15 128 0 1 0 0 empty mixer_slider empty 0 -9 0
10 -262144 -1 -1 8300 1;
#X obj 1231 341 r m;
#X obj 1231 365 / 127;
#X obj 39 677 outlet~;
#X obj 39 642 *~;
#X obj 182 678 outlet~;
#X obj 895 691 outlet~;
#X obj 895 656 *~;
#X obj 1058 688 outlet~;
#X obj 1058 660 *~;
#X obj 182 642 *~;
#X text 374 34 M;
#X text 150 26 S;
#X text 513 33 V;
#X text 660 34 A;
#X obj 106 308 *~;
#X obj 248 310 *~;
#X obj 391 310 *~;
#X obj 533 312 *~;
#X obj 677 312 *~;
#X obj 819 314 *~;
#X obj 962 314 *~;
#X obj 1104 316 *~;
#X obj 1231 590 *~;
#X obj -197 632 delwrite~ OBS-R 200;
#X obj -196 656 delread~ OBS-R 200;
#X text 990 35 Pd;
#X obj 893 570 delread~ \$0-OBS-L 150;
#X obj 1056 571 delread~ \$0-OBS-R 150;
#X obj 1059 529 delwrite~ \$0-OBS-R 150;
#X obj 895 529 delwrite~ \$0-OBS-L 150;
#X obj 467 322 *~ 1.5;
#X obj 905 446 *~;
#X obj 1039 448 *~;
#X obj 1157 405 tgl 15 0 empty empty empty 17 7 0 10 -262144 -1 -1
1 1;
#X connect 0 0 5 0;
#X connect 1 0 4 0;
#X connect 2 0 73 0;
#X connect 2 0 73 1;
#X connect 3 0 2 0;
#X connect 4 0 6 0;
#X connect 5 0 62 0;
#X connect 5 0 88 0;
#X connect 6 0 3 0;
#X connect 7 0 11 0;
#X connect 8 0 74 0;
#X connect 8 0 74 1;
#X connect 9 0 8 0;
#X connect 10 0 12 0;
#X connect 11 0 68 0;
#X connect 11 0 87 0;
#X connect 12 0 9 0;
#X connect 13 0 17 0;
#X connect 14 0 75 0;
#X connect 14 0 75 1;
#X connect 15 0 14 0;
#X connect 16 0 18 0;
#X connect 17 0 65 0;
#X connect 17 0 67 0;
#X connect 18 0 15 0;
#X connect 19 0 89 0;
#X connect 20 0 76 0;
#X connect 20 0 76 1;
#X connect 21 0 20 0;
#X connect 22 0 24 0;
#X connect 23 0 68 0;
#X connect 23 0 62 0;
#X connect 23 0 87 0;
#X connect 23 0 88 0;
#X connect 24 0 21 0;
#X connect 25 0 29 0;
#X connect 26 0 77 0;
#X connect 26 0 77 1;
#X connect 27 0 26 0;
#X connect 28 0 30 0;
#X connect 29 0 68 0;
#X connect 29 0 62 0;
#X connect 29 0 87 0;
#X connect 29 0 88 0;
#X connect 30 0 27 0;
#X connect 31 0 35 0;
#X connect 32 0 78 0;
#X connect 32 0 78 1;
#X connect 33 0 32 0;
#X connect 34 0 36 0;
#X connect 36 0 33 0;
#X connect 37 0 41 0;
#X connect 38 0 79 0;
#X connect 38 0 79 1;
#X connect 39 0 38 0;
#X connect 40 0 42 0;
#X connect 41 0 62 0;
#X connect 41 0 90 0;
#X connect 42 0 39 0;
#X connect 43 0 47 0;
#X connect 44 0 80 0;
#X connect 44 0 80 1;
#X connect 45 0 44 0;
#X connect 46 0 48 0;
#X connect 47 0 68 0;
#X connect 47 0 91 0;
#X connect 48 0 45 0;
#X connect 49 0 10 0;
#X connect 50 0 16 0;
#X connect 51 0 22 0;
#X connect 52 0 28 0;
#X connect 53 0 34 0;
#X connect 54 0 40 0;
#X connect 55 0 46 0;
#X connect 56 0 81 0;
#X connect 56 0 81 1;
#X connect 57 0 56 0;
#X connect 58 0 57 0;
#X connect 59 0 60 0;
#X connect 60 0 58 0;
#X connect 62 0 61 0;
#X connect 65 0 64 0;
#X connect 67 0 66 0;
#X connect 68 0 63 0;
#X connect 73 0 5 1;
#X connect 74 0 11 1;
#X connect 75 0 17 1;
#X connect 76 0 23 1;
#X connect 77 0 29 1;
#X connect 78 0 35 1;
#X connect 79 0 41 1;
#X connect 80 0 47 1;
#X connect 81 0 67 1;
#X connect 81 0 65 1;
#X connect 81 0 68 1;
#X connect 81 0 62 1;
#X connect 85 0 65 0;
#X connect 86 0 67 0;
#X connect 89 0 23 0;
#X connect 90 0 88 0;
#X connect 91 0 87 0;
#X connect 92 0 90 1;
#X connect 92 0 91 1;
