#N canvas 987 486 768 675 12;
#X obj 21 20 netreceive -u -b 6031;
#X obj 21 44 oscparse;
#X obj 21 68 list trim;
#X obj 21 92 route alias8;
#X obj 171 611 makefilename, f 14;
#X msg 289 424 set k%d;
#X obj 22 641 s, f 7;
#X obj 289 393 route knob;
#X obj 404 391 route slider;
#X obj 537 389 route pad;
#X obj 647 389 route master;
#X msg 404 424 set s%d;
#X msg 537 425 set p%d;
#X obj 21 211 unpack f s f f, f 71;
#X obj 143 276 symbol;
#X obj 22 440 f;
#X obj 143 305 list;
#X obj 143 329 list trim;
#X obj 171 499 *;
#X msg 354 424 2;
#X msg 477 426 1;
#X msg 605 425 2;
#X obj 171 466 * 8;
#X obj 171 529 +;
#X obj 171 437 - 1;
#X msg 642 507 1;
#X msg 610 507 2;
#X obj 69 560 gate 2, f 15;
#X msg 69 589 symbol m;
#X obj 21 240 t b f b, f 18;
#X obj 102 121 outlet;
#X text 192 20 routs all incoming osc on port 6031 \; \; incoming messages
from the alias8 are parsed and send out to appropriately named sends.
pad1 is named p1 \, knob1 k1 etc \; \; Switching banks on the alias8
will shift these send numbers accordingly \, so knob1 on bank 2 is
k17 \, since there are 16 knobs per bank \; \; All other osc messages
are routed to the outlet to be parsed manually;
#X connect 0 0 1 0;
#X connect 1 0 2 0;
#X connect 2 0 3 0;
#X connect 3 0 13 0;
#X connect 3 1 30 0;
#X connect 4 0 6 1;
#X connect 5 0 4 0;
#X connect 7 0 5 0;
#X connect 7 0 19 0;
#X connect 7 1 8 0;
#X connect 8 0 11 0;
#X connect 8 0 20 0;
#X connect 8 1 9 0;
#X connect 9 0 12 0;
#X connect 9 0 21 0;
#X connect 9 1 10 0;
#X connect 10 0 25 0;
#X connect 11 0 4 0;
#X connect 12 0 4 0;
#X connect 13 0 29 0;
#X connect 13 1 14 1;
#X connect 13 2 23 1;
#X connect 13 3 15 1;
#X connect 14 0 16 0;
#X connect 15 0 6 0;
#X connect 16 0 17 0;
#X connect 17 0 7 0;
#X connect 18 0 23 0;
#X connect 19 0 18 1;
#X connect 19 0 26 0;
#X connect 20 0 18 1;
#X connect 20 0 26 0;
#X connect 21 0 18 1;
#X connect 21 0 26 0;
#X connect 22 0 18 0;
#X connect 23 0 27 1;
#X connect 24 0 22 0;
#X connect 25 0 27 0;
#X connect 26 0 27 0;
#X connect 27 0 28 0;
#X connect 27 1 4 0;
#X connect 28 0 6 1;
#X connect 29 0 15 0;
#X connect 29 1 24 0;
#X connect 29 2 14 0;
