#N canvas 408 201 1578 1200 12;
#X obj 21 20 netreceive -u -b 6031;
#X obj 21 44 oscparse;
#X obj 21 68 list trim;
#X obj 21 92 route alias8;
#X obj 171 518 makefilename, f 14;
#X msg 289 331 set k%d;
#X obj 22 548 s, f 7;
#X obj 289 300 route knob;
#X obj 404 298 route slider;
#X obj 537 296 route pad;
#X obj 647 296 route master;
#X msg 404 331 set s%d;
#X msg 537 332 set p%d;
#X obj 21 118 unpack f s f f, f 71;
#X obj 143 183 symbol;
#X obj 22 347 f;
#X obj 143 212 list;
#X obj 143 236 list trim;
#X obj 171 406 *;
#X msg 354 331 2;
#X msg 477 333 1;
#X msg 605 332 2;
#X obj 171 373 * 8;
#X obj 171 436 +;
#X obj 171 344 - 1;
#X msg 642 414 1;
#X msg 610 414 2;
#X obj 69 467 gate 2, f 15;
#X msg 69 496 symbol m;
#X obj 21 147 t b f b, f 18;
#X connect 0 0 1 0;
#X connect 1 0 2 0;
#X connect 2 0 3 0;
#X connect 3 0 13 0;
#X connect 4 0 6 1;
#X connect 5 0 4 0;
#X connect 7 0 5 0;
#X connect 7 0 19 0;
#X connect 7 1 8 0;
#X connect 8 0 11 0;
#X connect 8 0 20 0;
#X connect 8 1 9 0;
#X connect 9 0 12 0;
#X connect 9 0 21 0;
#X connect 9 1 10 0;
#X connect 10 0 25 0;
#X connect 11 0 4 0;
#X connect 12 0 4 0;
#X connect 13 0 29 0;
#X connect 13 1 14 1;
#X connect 13 2 23 1;
#X connect 13 3 15 1;
#X connect 14 0 16 0;
#X connect 15 0 6 0;
#X connect 16 0 17 0;
#X connect 17 0 7 0;
#X connect 18 0 23 0;
#X connect 19 0 18 1;
#X connect 19 0 26 0;
#X connect 20 0 18 1;
#X connect 20 0 26 0;
#X connect 21 0 18 1;
#X connect 21 0 26 0;
#X connect 22 0 18 0;
#X connect 23 0 27 1;
#X connect 24 0 22 0;
#X connect 25 0 27 0;
#X connect 26 0 27 0;
#X connect 27 0 28 0;
#X connect 27 1 4 0;
#X connect 28 0 6 1;
#X connect 29 0 15 0;
#X connect 29 1 24 0;
#X connect 29 2 14 0;
