#N canvas 906 503 657 450 12;
#X obj 38 223 list prepend send;
#X obj 38 247 list trim;
#X obj 38 372 netsend -u -b;
#X msg 61 346 disconnect;
#X msg 60 322 connect localhost 7700;
#X obj 60 271 loadbang;
#X obj 60 295 del 1000;
#X obj 87 175 oscformat /1/red;
#X obj 135 151 oscformat /1/green;
#X obj 189 127 oscformat /1/blue;
#X obj 38 199 oscformat /1/master;
#X obj 235 104 oscformat /1/strobe;
#X obj 281 78 oscformat /1/fx;
#X obj 327 51 oscformat /1/fxcntrl;
#X obj 38 25 inlet;
#X obj 87 25 inlet;
#X obj 135 25 inlet;
#X obj 189 23 inlet;
#X obj 235 23 inlet;
#X obj 281 22 inlet;
#X obj 327 22 inlet;
#X connect 0 0 1 0;
#X connect 1 0 2 0;
#X connect 3 0 2 0;
#X connect 4 0 2 0;
#X connect 5 0 6 0;
#X connect 6 0 4 0;
#X connect 7 0 0 0;
#X connect 8 0 0 0;
#X connect 9 0 0 0;
#X connect 10 0 0 0;
#X connect 11 0 0 0;
#X connect 12 0 0 0;
#X connect 14 0 10 0;
#X connect 15 0 7 0;
#X connect 16 0 8 0;
#X connect 17 0 9 0;
#X connect 18 0 11 0;
#X connect 19 0 12 0;
#X connect 20 0 13 0;
