#N canvas 1637 481 158 145 12;
#X obj 15 14 inlet~;
#X obj 15 72 snapshot~;
#X obj 71 15 loadbang;
#X obj 15 96 outlet;
#X obj 71 40 metro 100;
#X connect 0 0 1 0;
#X connect 1 0 3 0;
#X connect 2 0 4 0;
#X connect 4 0 1 0;
